
<svg xmlns="http://www.w3.org/2000/svg" width="26.251" height="30.001" viewBox="0 0 26.251 30.001"><defs><style>.a{fill:#70a1ff;}</style></defs><path class="a" d="M2.534,27.313a9.18,9.18,0,0,1,.081-12.749L14.906,1.992a6.557,6.557,0,0,1,9.415,0,6.821,6.821,0,0,1,0,9.509L13.607,22.449a4.372,4.372,0,0,1-6.327-.058,4.541,4.541,0,0,1,.085-6.267l8.423-8.6a.938.938,0,0,1,1.326-.014l1.34,1.311a.938.938,0,0,1,.014,1.326l-8.422,8.6a.792.792,0,0,0-.038,1.072.625.625,0,0,0,.919.01L21.64,8.879a3.069,3.069,0,0,0,0-4.266,2.81,2.81,0,0,0-4.052,0L5.3,17.185a5.427,5.427,0,0,0-.07,7.519,5,5,0,0,0,7.211.017L22.519,14.408a.938.938,0,0,1,1.326-.015l1.34,1.31a.937.937,0,0,1,.015,1.326L15.119,27.342a8.743,8.743,0,0,1-12.584-.028Z" transform="translate(0 0)"/></svg>