
<svg xmlns="http://www.w3.org/2000/svg" width="30" height="30" viewBox="0 0 30 30"><defs><style>.a{fill:#70a1ff;}</style></defs><path class="a" d="M15,8A15,15,0,1,0,30,23,15,15,0,0,0,15,8Zm0,27.1A12.1,12.1,0,1,1,27.1,23,12.109,12.109,0,0,1,15,35.1ZM10.161,22.033A1.936,1.936,0,1,0,8.226,20.1,1.933,1.933,0,0,0,10.161,22.033Zm9.678,0A1.936,1.936,0,1,0,17.9,20.1,1.933,1.933,0,0,0,19.839,22.033Zm.242,4.391a6.607,6.607,0,0,1-10.161,0,1.452,1.452,0,1,0-2.232,1.857,9.522,9.522,0,0,0,14.625,0,1.452,1.452,0,1,0-2.232-1.857Z" transform="translate(0 -8)"/></svg>