
<svg xmlns="http://www.w3.org/2000/svg" width="33.327" height="33.327" viewBox="0 0 33.327 33.327"><defs><style>.a{fill:#004da9;}</style></defs><path class="a" d="M14.565,8.511l-4.5-7.5A2.083,2.083,0,0,0,8.279,0H1.044A1.042,1.042,0,0,0,.191,1.639L7.434,11.986a13.471,13.471,0,0,1,7.131-3.475ZM32.284,0H25.049a2.083,2.083,0,0,0-1.786,1.012l-4.5,7.5a13.475,13.475,0,0,1,7.131,3.475L33.138,1.639A1.042,1.042,0,0,0,32.284,0ZM16.664,10.415A11.456,11.456,0,1,0,28.12,21.871,11.456,11.456,0,0,0,16.664,10.415Zm6.022,10.236-2.469,2.406.584,3.4a.747.747,0,0,1-1.084.787l-3.053-1.6-3.053,1.6a.747.747,0,0,1-1.084-.787l.584-3.4-2.469-2.406a.748.748,0,0,1,.413-1.275l3.413-.5,1.525-3.093a.749.749,0,0,1,1.342,0l1.525,3.093,3.413.5A.748.748,0,0,1,22.687,20.651Z" transform="translate(-0.001)"/></svg>