<svg xmlns="http://www.w3.org/2000/svg" width="13.125" height="15" viewBox="0 0 13.125 15">
<defs><style>.a{fill:#004DA9;}</style></defs>
<path class="a" d="M13.125,2.143V3.482c0,1.18-2.939,2.143-6.563,2.143S0,4.662,0,3.482V2.143C0,.963,2.939,0,6.563,0S13.125.963,13.125,2.143Zm0,3.013V8.17c0,1.18-2.939,2.143-6.563,2.143S0,9.35,0,8.17V5.156c1.41.971,3.99,1.423,6.563,1.423S11.715,6.127,13.125,5.156Zm0,4.688v3.013c0,1.18-2.939,2.143-6.563,2.143S0,14.037,0,12.857V9.844c1.41.971,3.99,1.423,6.563,1.423S11.715,10.815,13.125,9.844Z" transform="translate(0)"/>
</svg>