
<svg xmlns="http://www.w3.org/2000/svg" width="20.667" height="27.556" viewBox="0 0 20.667 27.556"><defs><style>.a{fill:#70a1ff;}</style></defs><path class="a" d="M12.056,7.32V0H1.292A1.289,1.289,0,0,0,0,1.292V26.264a1.289,1.289,0,0,0,1.292,1.292H19.375a1.289,1.289,0,0,0,1.292-1.292V8.611h-7.32A1.3,1.3,0,0,1,12.056,7.32ZM16.17,18.7l-5.189,5.151a.918.918,0,0,1-1.294,0L4.5,18.7A.861.861,0,0,1,5.1,17.222H8.611V12.917a.861.861,0,0,1,.861-.861h1.722a.861.861,0,0,1,.861.861v4.306h3.508A.861.861,0,0,1,16.17,18.7ZM20.29,5.651,15.021.377A1.291,1.291,0,0,0,14.106,0h-.328V6.889h6.889V6.561A1.288,1.288,0,0,0,20.29,5.651Z"/></svg>