
<svg xmlns="http://www.w3.org/2000/svg" width="436.959" height="853" viewBox="0 0 436.959 853"><defs><style>.a{fill:#eef5ff;}.b{fill:#fff;}.c{fill:#86bdff;}.d{fill:#60a8ff;}.e{fill:#add2ff;}.f{fill:#70a1ff;}.g{fill:#e6e7e8;}.h{fill:#4a5157;}.i{fill:#868686;}.j{fill:#858585;}.k{fill:#bbb;}.l{fill:#d0e5ff;}</style></defs><g transform="translate(-1906 -695)"><rect class="a" width="375.366" height="853" transform="translate(1907.162 695)"/><rect class="b" width="60.431" height="853" transform="translate(2342.959 1548) rotate(180)"/><path class="c" d="M2201.756,1354.971H2182V1305h24.4Z" transform="translate(44.747 98.896)"/><path class="d" d="M2182,1335.215h21.594L2206.4,1305H2182Z" transform="translate(44.747 98.896)"/><g transform="translate(1906 1158.688)"><path class="c" d="M2305.771,1153.09l-36.026,191.751H1906V1153.09S2307.224,1151.637,2305.771,1153.09Z" transform="translate(-1906 -1084.525)"/><path class="d" d="M1906,1153.09v113.3l394.093-83.073,5.678-30.225C2307.224,1151.637,1906,1153.09,1906,1153.09Z" transform="translate(-1906 -1084.525)"/><rect class="c" width="417.203" height="39.512" transform="translate(0 41.837)"/><g transform="translate(349.8)"><path class="e" d="M2234.432,1132.464a17.432,17.432,0,1,1,17.432-17.432A17.452,17.452,0,0,1,2234.432,1132.464Zm0-29.286a11.854,11.854,0,1,0,11.854,11.854A11.868,11.868,0,0,0,2234.432,1103.178Z" transform="translate(-2205.379 -1093.416)"/><path class="f" d="M2234.418,1100.8a15.662,15.662,0,1,0,17.33,15.572A17.455,17.455,0,0,0,2234.418,1100.8Zm11.854,17.432a10.875,10.875,0,1,0-.16-1.859A11.82,11.82,0,0,1,2246.271,1118.232Z" transform="translate(-2205.365 -1092.898)"/><rect class="d" width="32.075" height="41.837" rx="3.125"/><path class="e" d="M2210.341,1094a3.341,3.341,0,0,0-3.341,3.341v32.685a1.57,1.57,0,0,0,2.092,2.092h11.389a14.875,14.875,0,0,0,14.875-14.875v-21.151a1.57,1.57,0,0,0-2.092-2.092Z" transform="translate(-2207 -1094)"/></g></g><path class="g" d="M2108,1004.707c16.27-16.27,38.35-11.621,38.35-11.621v3.486s-15.883,2.324-23.048,11.621S2108,1004.707,2108,1004.707Z" transform="translate(32.749 48.228)"/><path class="b" d="M2104,1008.229s6.572-.471,9.37,1.567a57.57,57.57,0,0,1,28.3-17.242C2130.729,990.8,2115.333,996.9,2104,1008.229Z" transform="translate(32.101 48.192)"/><path class="f" d="M2142.14,999.783c-5.811-6.973-10.459-12.783-6.973-12.783s11.621,4.648,11.621,4.648Z" transform="translate(36.959 47.341)"/><path class="f" d="M2184.026,1007s11.621,18.594-3.486,30.215S2148,1031.4,2148,1031.4Z" transform="translate(39.234 50.583)"/><path class="b" d="M2131,1027.56c0-12.783,3.486-30.215,15.108-37.188s34.864,1.162,44.161,8.135c0,0,1.162,39.512-45.323,38.35Z" transform="translate(36.478 47.455)"/><path class="g" d="M2161.37,988.07l-6.9-.328a21.107,21.107,0,0,0-9.965,2.624,21.8,21.8,0,0,0-3.632,2.768c11.253,13.044,22.293,7.145,31.522,3.042,2.677-1.19,4.815-2.226,6.523-3.11A66.767,66.767,0,0,0,2161.37,988.07Z" transform="translate(38.079 47.461)"/><path class="f" d="M2162.33,1011.285c-7.276,3.637-10.459-3.486-9.3-6.973s11.621-12.783,17.432-8.135C2174.315,999.258,2164.654,1010.123,2162.33,1011.285Z" transform="translate(40.012 48.622)"/><path class="b" d="M2118,1007.779c13.946,0,27.891-2.324,34.864-3.486s11.621-4.648,12.783,1.162-31.377,15.108-31.377,15.108L2118,1007.779" transform="translate(34.371 49.804)"/><path class="b" d="M2146,1046.63s11.621-6.973,19.756-15.108,12.783-1.162,9.3,3.486-19.756,24.4-19.756,24.4Z" transform="translate(38.91 53.952)"/><path class="h" d="M2056.481,977.074a23.872,23.872,0,0,1-6.973-9.3c-2.325-5.811-2.325-10.459-5.811-15.108s0-12.783,4.649-17.432,17.432-2.324,17.432-2.324,16.27-5.811,24.4-1.162,9.3,13.946,10.459,26.729,1.162,24.7-5.23,27.455S2056.481,977.074,2056.481,977.074Z" transform="translate(22.095 38.091)"/><path class="b" d="M2014.321,1044s-31.377,40.674-22.081,60.431,49.972-4.649,49.972-4.649l-4.649-41.837Z" transform="translate(13.703 56.582)"/><path class="g" d="M2133,1020.367s32.539-9.3,31.378-15.108a5.884,5.884,0,0,0-.662-1.858c-5.694,4.56-16.415,8.916-37.853,11.359Z" transform="translate(35.645 50)"/><path class="b" d="M2123.649,1077.7l23.242-32.54L2162,1044s29.053,44.161,15.108,62.755S2119,1092.809,2119,1092.809Z" transform="translate(34.533 56.582)"/><path class="h" d="M2116.026,1328.72s-1.162,24.4,2.324,29.053,6.973,0,13.946,5.811,39.512,0,39.512,0,1.162-6.973-1.162-10.459-27.891-12.783-30.215-24.4S2116.026,1328.72,2116.026,1328.72Z" transform="translate(34.021 101.905)"/><path class="h" d="M2071.7,1331.36c-8.135,12.783-15.108,16.27-24.4,17.432s-9.3,2.324-9.3,10.459h66.241s0-22.08-3.486-27.891S2071.7,1331.36,2071.7,1331.36Z" transform="translate(21.401 102.751)"/><path class="i" d="M2026.5,1130.5s12.783,76.7,27.891,140.617,18.594,84.835,18.594,84.835-3.486,5.811-1.162,11.621h33.7l-27.891-195.237,19.756,1.162,31.377,190.589h29.053L2136.9,1142.121Z" transform="translate(19.536 70.606)"/><path class="f" d="M2002,1043.428l25.681-25.681a36.96,36.96,0,0,1,24.97-10.807l76.082-2.4a41.668,41.668,0,0,1,32.672,14.208l27.7,31.655-32.539,22.08s-3.487,73.214-11.622,98.781c0,0-91.808-1.162-119.7-9.3,0,0-2.905-58.687-.581-88.9C2024.661,1073.063,2007.229,1061.441,2002,1043.428Z" transform="translate(15.564 50.181)"/><path class="b" d="M2010.514,1075.3s30.215-37.188,38.35-44.161,20.918-8.135,20.918-8.135l-3.486,30.215s-17.045,48.809-43.386,58.106S2010.514,1075.3,2010.514,1075.3Z" transform="translate(16.347 53.177)"/><path class="b" d="M2077,1020.264s15.107-8.135,23.242,9.3c0,0,61.593,34.864,70.89,43s-21.305,38.737-21.305,38.737-30.99-25.954-54.233-52.683Z" transform="translate(27.723 52.426)"/><path class="b" d="M2094.647,977.512a25.089,25.089,0,0,0,.581,13.365c3.155,10.424,8.135,22.144,8.135,25.567,0,9.3-4.71,12.245-16.56,11.04-17.141-1.743-15.979-9.878-14.236-31.377,0,0-11.622,1.162-17.432-16.27A221.807,221.807,0,0,1,2047,947.3l30.215-9.3,20.918,9.3,1.162,19.756Z" transform="translate(22.86 39.396)"/><g transform="translate(2069.86 983.056)"><path class="g" d="M2072.435,995.326a4.552,4.552,0,0,1-1.612-.59c-3.486-2.324-2.324-3.486,1.162-4.648s8.135-5.811,4.648-4.648-4.648,3.486-8.135,2.324,1.162-3.486-3.486-3.486-2.324-1.162-2.324-5.811-8.135-19.756-4.648-25.567c1.695-2.825,1.463-6.743.781-10.029L2047,946.508a221.807,221.807,0,0,0,8.135,32.539C2060.583,995.391,2071.138,995.39,2072.435,995.326Z" transform="translate(-2047 -942.87)"/><path class="g" d="M2069.127,988.151c-.671,8.277-1.249,14.565-.732,19.274,7.333-11.091,16.424-18.989,16.424-19.891C2084.819,986.516,2074.127,989.062,2069.127,988.151Z" transform="translate(-2043.563 -935.669)"/></g><path class="h" d="M2052.763,972.85s-3.777-10.459-1.453-15.108,5.811-2.324,11.621-3.486,16.27-10.459,19.756-4.648,4.649,15.108,6.973,13.946,1.162-5.811,4.648-5.811,4.648,6.973,3.486,10.459a7.937,7.937,0,0,1-4.648,4.648s-1.162,5.811,0,10.459,4.648-2.324,4.648-2.324l2.76-10.895-1.017-18.594-1.162-5.956-22.662-11.04L2045.5,944.959v4.648l4.067,17.432Z" transform="translate(22.616 38.829)"/><path class="j" d="M2048.075,1019.745l19.727,50.3a6.718,6.718,0,0,0,6.464,4.263l25.795-.807a4.823,4.823,0,0,0,4.382-6.469l-18.858-51.857a7.5,7.5,0,0,0-8.2-4.845l-26.26,4.1A3.924,3.924,0,0,0,2048.075,1019.745Z" transform="translate(22.99 51.109)"/><path class="k" d="M2077.859,1014.68a7.982,7.982,0,0,0-3.451-3.961l-23.286,3.639a3.924,3.924,0,0,0-3.047,5.31l19.727,50.3a6.718,6.718,0,0,0,6.464,4.263l25.795-.807c.115,0,.225-.02.337-.031a5.542,5.542,0,0,0-.092-3.979Z" transform="translate(22.99 51.186)"/><path class="b" d="M2089.485,1023s-16.269,5.229-27.309,4.939-1.744,28.763,13.364,28.763,30.215,8.135,30.215,8.135Z" transform="translate(24.536 53.177)"/><path class="f" d="M2146.5,989.886c0,8.135,8.135,15.108,16.27,3.486S2146.5,989.886,2146.5,989.886Z" transform="translate(38.991 47.36)"/><path class="b" d="M2050,1032s8.135,8.135,17.432,10.459c7.563,1.891,18.594,19.756,13.946,23.243s-29.053-4.649-29.053-4.649Z" transform="translate(23.346 54.636)"/><path class="b" d="M2116.558,942c-3.486,1.162-3.486,3.486-3.486,10.459s-1.162,32.54,0,33.7,5.811,2.324,12.783,4.649,18.594,5.811,24.4,9.3,18.594,2.324,24.4-1.162,12.783-8.135,13.946-24.4-16.27-27.891-30.215-30.215S2116.558,942,2116.558,942Z" transform="translate(33.488 40.045)"/><path class="g" d="M2113.5,980.526c0-9.369,1.162-29.053,1.162-31.377s0-4.648,4.648-4.648,33.7,1.162,38.35,4.648-3.487,45.323-5.811,46.485-6.973-1.162-12.784-3.486-23.242-6.973-24.4-8.135A4.269,4.269,0,0,1,2113.5,980.526Z" transform="translate(33.641 40.45)"/><ellipse class="f" cx="4.558" cy="9.117" rx="4.558" ry="9.117" transform="translate(2151.208 998.114)"/><ellipse class="f" cx="4.558" cy="9.117" rx="4.558" ry="9.117" transform="translate(2174.05 1003.324)"/><path class="g" d="M2164.285,975.181c1.741-5.222,5.768-8.646,9.25-8.026a4.687,4.687,0,0,0-1.677-1c-3.617-1.206-8.049,2.315-9.9,7.864s-.417,11.024,3.2,12.229a4.512,4.512,0,0,0,.647.162C2163.474,984.292,2162.757,979.765,2164.285,975.181Z" transform="translate(41.367 43.923)"/><g transform="translate(1983.862 983.982)"><circle class="l" cx="21.984" cy="21.984" r="21.984"/><g transform="translate(6.498 12.946)"><path class="b" d="M1992.35,976.953l-5.168,2.062-6.164-15.445,5.169-2.063Zm-9.589-16.524-.035.014a3.188,3.188,0,1,1,.035-.014Zm28.221,9.089-5.168,2.062-3.3-8.264c-.829-2.077-2.143-3.195-4.011-2.449a3.041,3.041,0,0,0-1.9,2.937,3.73,3.73,0,0,0,.328,1.319l3.442,8.628-5.166,2.062s-5.518-14.023-6.164-15.445l5.167-2.063.874,2.191a5.524,5.524,0,0,1,3.636-4.411c3.4-1.357,6.832-.169,8.725,4.578l3.535,8.857Zm-15.911-8.961c0-.017.008-.04.014-.062l.02.049Z" transform="translate(-1978.591 -954.806)"/></g></g><g transform="translate(1946.991 875.082)"><circle class="l" cx="31.958" cy="31.958" r="31.958"/><path class="b" d="M1985.776,865.515a18.951,18.951,0,0,0-29.817,22.861l-2.688,9.813,10.044-2.637a18.882,18.882,0,0,0,9.054,2.3h.008a18.824,18.824,0,0,0,13.4-32.342Zm-13.4,29.151a15.717,15.717,0,0,1-8.021-2.194l-.572-.341-5.956,1.561,1.586-5.811-.376-.6a15.777,15.777,0,1,1,29.261-8.372A15.922,15.922,0,0,1,1972.378,894.666Zm8.637-11.793c-.47-.239-2.8-1.383-3.234-1.536s-.752-.239-1.067.238-1.22,1.536-1.5,1.86-.554.359-1.024.12c-2.782-1.391-4.608-2.484-6.443-5.632-.486-.837.487-.777,1.391-2.586a.879.879,0,0,0-.043-.829c-.119-.238-1.067-2.568-1.458-3.515-.385-.922-.777-.794-1.067-.81-.273-.017-.589-.017-.905-.017a1.754,1.754,0,0,0-1.262.588,5.32,5.32,0,0,0-1.656,3.951,9.265,9.265,0,0,0,1.929,4.9c.238.316,3.336,5.095,8.089,7.152,3,1.3,4.181,1.407,5.683,1.185.914-.136,2.8-1.144,3.192-2.252a3.977,3.977,0,0,0,.273-2.253C1981.8,883.222,1981.484,883.1,1981.015,882.872Z" transform="translate(-1939.327 -848.338)"/></g><g transform="translate(2252.281 988.947)"><circle class="l" cx="22.661" cy="22.661" r="22.661"/><path class="b" d="M2239.491,964.045a13.437,13.437,0,0,0-25.928,6.121l-4.591,5.567,7.262,1.213a13.392,13.392,0,0,0,5.187,4.122l.006,0a13.347,13.347,0,0,0,18.064-17.025Zm-17.136,14.96a11.138,11.138,0,0,1-4.551-3.749l-.271-.387-4.307-.72,2.716-3.3-.07-.5a11.187,11.187,0,1,1,21.36,3.089A11.29,11.29,0,0,1,2222.355,979.005Zm9.013-5.118c-.235-.29-1.408-1.707-1.646-1.932s-.417-.373-.76-.156-1.235.639-1.512.767-.462.07-.7-.221a9.142,9.142,0,0,1-2.53-5.516c-.072-.682.541-.36,1.652-1.268a.623.623,0,0,0,.212-.547c-.008-.189.057-1.972.078-2.7.02-.708-.272-.739-.455-.834s-.375-.182-.58-.274a1.245,1.245,0,0,0-.988.014,3.775,3.775,0,0,0-2.22,2.074,6.574,6.574,0,0,0-.176,3.729A15.009,15.009,0,0,0,2224.9,974c1.566,1.712,2.3,2.125,3.331,2.418a3.437,3.437,0,0,0,2.719-.53,2.8,2.8,0,0,0,.831-1.377C2231.774,974.341,2231.6,974.173,2231.368,973.887Z" transform="translate(-2203.162 -946.733)"/></g><g transform="translate(2157.149 820.24)"><circle class="l" cx="22.5" cy="22.5" r="22.5"/><path class="b" d="M2157.378,818.759a13.342,13.342,0,0,0-25.743,6.078l-4.558,5.527,7.211,1.2a13.284,13.284,0,0,0,5.149,4.093l.006,0a13.253,13.253,0,0,0,17.935-16.9Zm-17.015,14.854a11.061,11.061,0,0,1-4.518-3.722l-.268-.385-4.277-.716,2.7-3.274-.069-.493a11.107,11.107,0,1,1,21.208,3.068A11.21,11.21,0,0,1,2140.364,833.614Zm8.948-5.082c-.232-.288-1.4-1.7-1.633-1.92s-.414-.37-.754-.153-1.227.635-1.5.761-.46.07-.693-.218a9.076,9.076,0,0,1-2.513-5.476c-.071-.678.537-.359,1.64-1.26a.617.617,0,0,0,.211-.544c-.008-.188.056-1.957.078-2.679.019-.7-.27-.733-.452-.828s-.373-.181-.575-.272a1.238,1.238,0,0,0-.981.014,3.744,3.744,0,0,0-2.2,2.059,6.526,6.526,0,0,0-.176,3.7,14.9,14.9,0,0,0,3.132,6.926c1.555,1.7,2.279,2.11,3.307,2.4a3.412,3.412,0,0,0,2.7-.526,2.783,2.783,0,0,0,.826-1.368C2149.715,828.984,2149.548,828.815,2149.312,828.532Z" transform="translate(-2121.307 -801.571)"/></g><g transform="translate(1953.249 753.222)"><circle class="l" cx="27.384" cy="27.384" r="27.384"/><path class="b" d="M1989.579,764.562a16.238,16.238,0,0,0-31.332,7.4l-5.547,6.726,8.776,1.466a16.182,16.182,0,0,0,6.267,4.98l.006,0a16.129,16.129,0,0,0,21.829-20.573Zm-20.708,18.079a13.471,13.471,0,0,1-5.5-4.531l-.328-.468-5.2-.87,3.282-3.985-.083-.6a13.518,13.518,0,1,1,25.81,3.733A13.643,13.643,0,0,1,1968.871,782.641Zm10.891-6.185c-.283-.352-1.7-2.064-1.988-2.337s-.5-.45-.918-.187-1.493.772-1.827.926-.56.085-.843-.266c-1.686-2.064-2.73-3.56-3.057-6.665-.087-.824.653-.436,2-1.533a.753.753,0,0,0,.257-.661c-.009-.229.069-2.382.094-3.261.023-.855-.328-.892-.548-1.008s-.454-.221-.7-.331a1.5,1.5,0,0,0-1.193.016,4.558,4.558,0,0,0-2.681,2.507,7.939,7.939,0,0,0-.213,4.505c.075.331.818,5.154,3.812,8.43,1.892,2.068,2.773,2.569,4.025,2.924a4.16,4.16,0,0,0,3.286-.64,3.4,3.4,0,0,0,1-1.665C1980.253,777,1980.048,776.8,1979.762,776.456Z" transform="translate(-1945.678 -743.642)"/></g><g transform="translate(2033.446 827.482)"><circle class="l" cx="22.661" cy="22.661" r="22.661"/><g transform="translate(11.693 11.019)"><path class="d" d="M2049.112,834.482a1.992,1.992,0,0,1-1.425,2.43l-16.707,4.358a1.992,1.992,0,0,1-2.43-1.425l-2.757-10.573a1.991,1.991,0,0,1,.343-1.71c.8-1.046,1.456-1.9,5.321-6.6.547-.669,1.578-2.2,2.514-2.433.929-.257,2.579.579,3.383.895,5.668,2.216,6.662,2.637,7.866,3.16a1.993,1.993,0,0,1,1.134,1.325Z" transform="translate(-2025.729 -818.481)"/><path class="b" d="M2037.352,819.425c-.8-.316-2.454-1.152-3.383-.895-.936.229-1.966,1.764-2.514,2.433-3.865,4.7-4.525,5.554-5.321,6.6a1.985,1.985,0,0,0-.386,1.411l13.005,4.688L2045.809,823a1.988,1.988,0,0,0-.59-.411C2044.015,822.061,2043.02,821.641,2037.352,819.425Z" transform="translate(-2025.727 -818.481)"/><path class="e" d="M2048.573,833.631l-10.178-4.75a2.8,2.8,0,0,0-3.613,1.147l-5.468,9.569a1.97,1.97,0,0,0,1.084.029l16.707-4.358A1.99,1.99,0,0,0,2048.573,833.631Z" transform="translate(-2025.147 -816.838)"/></g></g><g transform="translate(2224.422 875.904)"><circle class="l" cx="22.08" cy="22.08" r="22.08"/><g transform="translate(6.822 8.348)"><path class="d" d="M2206.906,884.107a2.352,2.352,0,0,1-3.269.6l-16.752-11.578a2.349,2.349,0,0,1-.6-3.269l7.327-10.6a2.349,2.349,0,0,1,1.792-1.01c1.547-.093,2.817-.158,9.994-.323,1.019-.025,3.185-.286,4.109.374.945.632,1.468,2.751,1.8,3.712,2.382,6.772,2.771,7.985,3.231,9.463a2.353,2.353,0,0,1-.312,2.034Z" transform="translate(-2185.87 -857.85)"/><path class="b" d="M2210.2,862.008c-.336-.962-.859-3.08-1.8-3.712-.924-.66-3.09-.4-4.109-.374-7.177.165-8.448.23-9.994.323a2.341,2.341,0,0,0-1.558.743l5.82,15.231,14.964-1.9a2.341,2.341,0,0,0-.087-.845C2212.972,869.993,2212.583,868.78,2210.2,862.008Z" transform="translate(-2184.757 -857.85)"/><path class="e" d="M2206.2,883.117l-3.588-12.753a3.3,3.3,0,0,0-3.806-2.345l-12.761,2.478a2.34,2.34,0,0,0,.81.991l16.752,11.578A2.351,2.351,0,0,0,2206.2,883.117Z" transform="translate(-2185.842 -856.211)"/></g></g><g transform="translate(2096.589 896.435)"><circle class="l" cx="23.63" cy="23.63" r="23.63"/><path class="b" d="M2108.929,896.092l-11.47,1.62a1.508,1.508,0,0,1-1.335,1.733l-2.877.406a1.623,1.623,0,0,1-1.764-1.295l-11.318,1.6a.767.767,0,0,0-.65.865l.107.757a3.065,3.065,0,0,0,3.455,2.6l24.223-3.42a3.067,3.067,0,0,0,2.6-3.455l-.107-.758A.767.767,0,0,0,2108.929,896.092ZM2104.2,879a2.3,2.3,0,0,0-2.592-1.95l-19.681,2.779a2.3,2.3,0,0,0-1.95,2.592l2.244,15.9,24.223-3.42Zm-1.211,13.3-18.167,2.566-1.711-12.112,18.168-2.566Z" transform="translate(-2068.458 -866.923)"/></g><g transform="translate(2258.516 740.327)"><circle class="l" cx="29.049" cy="29.049" r="29.049"/><path class="b" d="M2251.276,778.157l-13.055-5.69a1.852,1.852,0,0,1-2.513.954l-3.274-1.427a1.994,1.994,0,0,1-1.013-2.492l-12.882-5.614a.943.943,0,0,0-1.238.486l-.375.861a3.771,3.771,0,0,0,1.944,4.948l27.571,12.016a3.77,3.77,0,0,0,4.948-1.944l.375-.862A.943.943,0,0,0,2251.276,778.157Zm6.052-20.943a2.827,2.827,0,0,0-1.458-3.711l-22.4-9.763a2.827,2.827,0,0,0-3.71,1.458l-7.886,18.092,27.571,12.016Zm-9.829,13.145-20.677-9.012,6.008-13.784,20.678,9.011Z" transform="translate(-2208.157 -732.463)"/></g><g transform="translate(2087.787 729.82)"><circle class="l" cx="34.886" cy="34.886" r="34.886"/><g transform="translate(19.4 15.262)"><g transform="translate(0 5.009)"><path class="e" d="M2105.148,762.808a2.14,2.14,0,0,0-1.527-.6,2.352,2.352,0,0,0-1.657.671l-2.7,2.7-.729-.4a23.93,23.93,0,0,1-10.567-10.575l-.4-.709,2.7-2.7a2.258,2.258,0,0,0,.067-3.184l-4.994-4.994a2.133,2.133,0,0,0-1.525-.6,2.354,2.354,0,0,0-1.657.673l-1.226,1.233-.114.19a7.765,7.765,0,0,0-1.11,1.962,8.161,8.161,0,0,0-.5,1.984c-.642,5.352,1.824,10.265,8.52,16.959,7.935,7.934,14.566,8.551,16.41,8.551.316,0,.507-.017.559-.022a8.264,8.264,0,0,0,1.991-.5,7.677,7.677,0,0,0,1.951-1.105l.278-.22,1.148-1.126a2.251,2.251,0,0,0,.064-3.177Z" transform="translate(-2079.12 -742.405)"/></g><g transform="translate(16.911 10.481)"><path class="b" d="M2099.13,749.553a8.709,8.709,0,0,0-3.944-2.258l-.686-.181-.2.678a5.236,5.236,0,0,1-.26.7l-.372.791.852.221a6.417,6.417,0,0,1,4.618,4.5l.144.514,1.073.06c.108.013.216.026.32.035l1.009.094-.234-.985A8.746,8.746,0,0,0,2099.13,749.553Z" transform="translate(-2093.672 -747.114)"/></g><g transform="translate(17.427 5.44)"><path class="b" d="M2102.563,746.75a13.6,13.6,0,0,0-7.454-3.807l-.993-.167.156.994c.047.3.087.588.121.884l.063.523.527.1a11.3,11.3,0,0,1,9.212,9.94l.062.554.84.121c.135.012.272.01.466.012l1.012.035-.08-.827A13.566,13.566,0,0,0,2102.563,746.75Z" transform="translate(-2094.116 -742.776)"/></g><g transform="translate(16.352)"><path class="b" d="M2106.52,743.7a19.076,19.076,0,0,0-12.417-5.55l-.912-.057.152.9c.047.292.1.591.164.9l.112.545.551.034a16.692,16.692,0,0,1,15.553,15.449l.053.715.714-.043c.169-.008.336-.023.579-.044l1.021-.08-.056-.724A19.1,19.1,0,0,0,2106.52,743.7Z" transform="translate(-2093.191 -738.095)"/></g><g transform="translate(1.523 5.009)"><path class="d" d="M2088.452,752.8l1.609-1.61a2.258,2.258,0,0,0,.067-3.184l-4.993-4.994a2.133,2.133,0,0,0-1.525-.6,2.354,2.354,0,0,0-1.657.673l-1.226,1.233-.114.19c-.067.087-.119.185-.182.274Z" transform="translate(-2080.431 -742.405)"/><path class="d" d="M2102.186,760.046a2.14,2.14,0,0,0-1.527-.6,2.353,2.353,0,0,0-1.657.671l-1.609,1.61,8.022,8.022c.089-.063.186-.114.272-.181l.278-.22,1.148-1.126a2.251,2.251,0,0,0,.064-3.177Z" transform="translate(-2077.681 -739.643)"/></g></g></g></g></svg>