
<svg xmlns="http://www.w3.org/2000/svg" width="18.75" height="15" viewBox="0 0 18.75 15"><defs><style>.a{fill:#004DA9;}</style></defs><path class="a" d="M14.588,6.619,8.381.412A1.406,1.406,0,0,0,7.386,0H1.406A1.406,1.406,0,0,0,0,1.406v5.98a1.406,1.406,0,0,0,.412.994l6.207,6.207a1.406,1.406,0,0,0,1.989,0l5.98-5.98a1.406,1.406,0,0,0,0-1.989ZM3.281,4.687A1.406,1.406,0,1,1,4.687,3.281,1.406,1.406,0,0,1,3.281,4.687ZM18.338,8.608l-5.98,5.98a1.406,1.406,0,0,1-1.989,0l-.011-.011,5.1-5.1a2.637,2.637,0,0,0,0-3.729L9.709,0h1.427a1.406,1.406,0,0,1,.994.412l6.207,6.207a1.406,1.406,0,0,1,0,1.989Z"/></svg>