
<svg xmlns="http://www.w3.org/2000/svg" width="16" height="13.375" viewBox="0 0 16 13.375"><defs><style>.a{fill:#fff;}</style></defs><g transform="translate(0 -52)"><path class="a" d="M14.413,54.375h-.975V53.5a1.5,1.5,0,0,0-1.5-1.5H2a2,2,0,0,0-2,2v9.375a2,2,0,0,0,2,2H14.413A1.547,1.547,0,0,0,16,63.875v-8A1.547,1.547,0,0,0,14.413,54.375Zm.025,9.435a.114.114,0,0,1-.025,0H2a.438.438,0,0,1-.437-.438V54A.437.437,0,0,1,2,53.563h9.637a.238.238,0,0,1,.238.238v.9h-8.4a.617.617,0,1,0,0,1.234H14.413a.114.114,0,0,1,.025,0Z" transform="translate(0 0)"/><circle class="a" cx="1.189" cy="1.189" r="1.189" transform="translate(10.873 58.627)"/></g></svg>