
<svg xmlns="http://www.w3.org/2000/svg" width="15.997" height="16" viewBox="0 0 15.997 16"><defs><style>.a{fill:#fff;}</style></defs><g transform="translate(-0.05 0)"><path class="a" d="M6.054,52.946v6.648H12.7a5.544,5.544,0,1,1-6.648-6.648M7.3,51.1a7.249,7.249,0,1,0,7.249,7.249.463.463,0,0,0-.46-.46H7.759V51.56a.458.458,0,0,0-.46-.46Z" transform="translate(0 -49.598)"/><path class="a" d="M251.62,1.592A4.776,4.776,0,0,1,255.2,5.177H251.62V1.592M250.547,0a.4.4,0,0,0-.4.4V6.25a.4.4,0,0,0,.4.4H256.4a.4.4,0,0,0,.4-.4V6.23A6.249,6.249,0,0,0,250.547,0Z" transform="translate(-240.75)"/></g></svg>