
<svg xmlns="http://www.w3.org/2000/svg" width="10.564" height="16" viewBox="0 0 10.564 16"><defs><style>.a{fill:#fff;}</style></defs><path class="a" d="M-22.361-10.5a1.421,1.421,0,0,1-1.121-.543,1.421,1.421,0,0,1-.269-1.216l1.087-4.585h-2.412a1.43,1.43,0,0,1-1.075-.487,1.432,1.432,0,0,1-.343-1.131l.906-6.8a1.435,1.435,0,0,1,1.418-1.24h4.078a1.419,1.419,0,0,1,1.131.557A1.423,1.423,0,0,1-18.71-24.7l-.013.043-.883,2.691h2.232a1.414,1.414,0,0,1,1.239.718,1.412,1.412,0,0,1,0,1.429l-4.983,8.608A1.435,1.435,0,0,1-22.361-10.5ZM-25-18.344h4.23l-1.412,5.958,4.679-8.082h-4.179L-20.191-25h-3.918Z" transform="translate(26.507 26.5)"/></svg>