
<svg xmlns="http://www.w3.org/2000/svg" width="16" height="16.644" viewBox="0 0 16 16.644"><defs><style>.a{fill:#fff;}</style></defs><g transform="translate(6.389 16.883)"><path class="a" d="M1.613-.239a8.406,8.406,0,0,1-1.829-.2A1.133,1.133,0,0,1-1.1-1.54v-.983a6.474,6.474,0,0,1-1.158-.668l-.851.492A1.135,1.135,0,0,1-4.5-2.912,8.409,8.409,0,0,1-6.336-6.087l0-.01a1.127,1.127,0,0,1,.518-1.3l.852-.492a6.592,6.592,0,0,1,0-1.335l-.852-.492a1.12,1.12,0,0,1-.515-1.316A8.358,8.358,0,0,1-4.5-14.207a1.119,1.119,0,0,1,1.391-.217l0,0,.85.492A6.657,6.657,0,0,1-1.1-14.6v-.986a1.133,1.133,0,0,1,.884-1.1,8.449,8.449,0,0,1,3.66,0,1.133,1.133,0,0,1,.883,1.1v.98a6.471,6.471,0,0,1,1.158.668l.85-.491a1.135,1.135,0,0,1,1.392.212,8.409,8.409,0,0,1,1.836,3.175l0,.01a1.127,1.127,0,0,1-.519,1.3l-.851.491a6.6,6.6,0,0,1,0,1.335l.851.492A1.14,1.14,0,0,1,9.57-6.113l-.008.026A8.36,8.36,0,0,1,7.729-2.915,1.119,1.119,0,0,1,6.338-2.7l0,0-.853-.493a6.656,6.656,0,0,1-1.155.667v.986a1.133,1.133,0,0,1-.884,1.1A8.4,8.4,0,0,1,1.613-.239ZM.424-1.866a6.931,6.931,0,0,0,2.378,0V-3.578l.507-.18a5.154,5.154,0,0,0,1.615-.933l.409-.348,1.482.856a6.843,6.843,0,0,0,1.192-2.06L6.518-7.1l.1-.53a5.091,5.091,0,0,0,0-1.862l-.1-.53L8-10.882a6.889,6.889,0,0,0-1.191-2.059l-1.485.857-.41-.353a4.974,4.974,0,0,0-1.608-.928l-.51-.179v-1.712a6.931,6.931,0,0,0-2.378,0v1.712l-.507.18a5.154,5.154,0,0,0-1.615.933l-.41.348-1.479-.856a6.844,6.844,0,0,0-1.191,2.059l1.486.858-.1.53a5.091,5.091,0,0,0,0,1.862l.1.53-1.485.858A6.889,6.889,0,0,0-3.589-4.183L-2.1-5.04l.41.353a4.974,4.974,0,0,0,1.608.928l.51.179Zm-4.3-2.153h0ZM-4.88-10.584v0Z" transform="translate(0 0)"/><path class="a" d="M158.079,156.524a1.555,1.555,0,1,1-1.555,1.555,1.557,1.557,0,0,1,1.555-1.555m0-1.524a3.079,3.079,0,1,0,3.079,3.079A3.083,3.083,0,0,0,158.079,155Z" transform="translate(-156.469 -166.643)"/></g></svg>