
<svg xmlns="http://www.w3.org/2000/svg" width="19.684" height="15" viewBox="0 0 19.684 15"><defs><style>.a{fill:#fff;}</style></defs><path class="a" d="M19.411,72.142,12.849,78.7a.939.939,0,0,1-1.6-.664V74.29H5.937A.935.935,0,0,1,5,73.353V69.6a.935.935,0,0,1,.937-.937h5.312V64.917a.939.939,0,0,1,1.6-.664l6.561,6.561A.945.945,0,0,1,19.411,72.142ZM7.5,78.508V76.946a.47.47,0,0,0-.469-.469H3.749a1.248,1.248,0,0,1-1.25-1.25v-7.5a1.248,1.248,0,0,1,1.25-1.25H7.03A.47.47,0,0,0,7.5,66.01V64.448a.47.47,0,0,0-.469-.469H3.749A3.75,3.75,0,0,0,0,67.729v7.5a3.75,3.75,0,0,0,3.749,3.749H7.03A.47.47,0,0,0,7.5,78.508Z" transform="translate(0 -63.979)"/></svg>