
<svg xmlns="http://www.w3.org/2000/svg" width="17.984" height="16" viewBox="0 0 17.984 16"><defs><style>.a{fill:#fff;}</style></defs><g transform="translate(375.929 501.224)"><path class="a" d="M-374.345-349.216a1.584,1.584,0,0,0-1.584,1.584v3.168a1.584,1.584,0,0,0,1.584,1.584h.461v-.033h5.05v-6.3h-5.512Zm4.269,4.979h-4.611v-3.65h4.611Z" transform="translate(0 -148.095)"/><path class="a" d="M-112.424-494.753a1.548,1.548,0,0,0-.962-.9v-3.574a2.05,2.05,0,0,0-2.1-1.993h-.01c-2.106,1.71-4.6,3.9-8.745,3.98v6.221a1.771,1.771,0,0,1,.462-.22c3.876.225,6.258,2.317,8.285,3.967a2.051,2.051,0,0,0,2.112-1.984v-3.579A1.474,1.474,0,0,0-112.424-494.753Zm-2.637,5.373a16.149,16.149,0,0,0-8.27-3.662v-2.424a16.15,16.15,0,0,0,8.27-3.662Z" transform="translate(-245.615)"/><path class="a" d="M-304.368-174.8a.731.731,0,0,0-.283-.456c-.754-.595-1.228-1.219-.807-2.007a.34.34,0,0,0-.042-.385,1.443,1.443,0,0,1,.325-2.014,1.443,1.443,0,0,1,.268-.153v-.222l-.753-1.606,0,.308h-4.314l.012,1.3c-.739,2.119.116,3.817.778,5.492a.833.833,0,0,0,.4.422,5.339,5.339,0,0,0,2.187.385,5.441,5.441,0,0,0,1.634-.211A.731.731,0,0,0-304.368-174.8Zm-3.25-.26a3.539,3.539,0,0,1-1.1-2.174,4.312,4.312,0,0,1,.143-2.838h1.864l.081-.005a2.6,2.6,0,0,0-.489,1.049,2.249,2.249,0,0,0,.277,1.746,3.156,3.156,0,0,0,.713,2.357A2.817,2.817,0,0,1-307.618-175.056Z" transform="translate(-63.834 -311.492)"/></g></svg>