
<svg xmlns="http://www.w3.org/2000/svg" width="14" height="16" viewBox="0 0 14 16"><defs><style>.a{fill:#fff;}</style></defs><path class="a" d="M7,1.25a16.577,16.577,0,0,1,4.073.466,6.444,6.444,0,0,1,1.277.464,1.879,1.879,0,0,1,.4.261V3.56a1.879,1.879,0,0,1-.4.261,6.444,6.444,0,0,1-1.277.464A16.577,16.577,0,0,1,7,4.75a16.577,16.577,0,0,1-4.073-.466A6.444,6.444,0,0,1,1.65,3.82a1.879,1.879,0,0,1-.4-.261V2.44a1.879,1.879,0,0,1,.4-.261,6.444,6.444,0,0,1,1.277-.464A16.577,16.577,0,0,1,7,1.25m5.75,6.217V8.56a1.879,1.879,0,0,1-.4.261,6.446,6.446,0,0,1-1.277.464A16.577,16.577,0,0,1,7,9.75a16.577,16.577,0,0,1-4.073-.466A6.446,6.446,0,0,1,1.65,8.82a1.879,1.879,0,0,1-.4-.261V7.467a19.547,19.547,0,0,0,5.75.8,19.547,19.547,0,0,0,5.75-.8m0,5V13.56a1.879,1.879,0,0,1-.4.261,6.444,6.444,0,0,1-1.277.464A16.577,16.577,0,0,1,7,14.75a16.577,16.577,0,0,1-4.073-.466A6.444,6.444,0,0,1,1.65,13.82a1.879,1.879,0,0,1-.4-.261V12.467a19.547,19.547,0,0,0,5.75.8,19.547,19.547,0,0,0,5.75-.8M7,0C3.135,0,0,1.027,0,2.286V3.714C0,4.973,3.135,6,7,6s7-1.027,7-2.286V2.286C14,1.027,10.865,0,7,0Zm7,5.5C12.5,6.536,9.743,7.018,7,7.018S1.5,6.536,0,5.5V8.714C0,9.973,3.135,11,7,11s7-1.027,7-2.286V5.5Zm0,5c-1.5,1.036-4.257,1.518-7,1.518S1.5,11.536,0,10.5v3.214C0,14.973,3.135,16,7,16s7-1.027,7-2.286V10.5Z"/></svg>