
<svg xmlns="http://www.w3.org/2000/svg" width="17.225" height="16" viewBox="0 0 17.225 16"><defs><style>.a{fill:#fff;}</style></defs><path class="a" d="M-15.139-9A1.5,1.5,0,0,1-16-9.272l-2.452-1.716a1.5,1.5,0,0,1-.641-1.231v-4.773l-5.444-5.445a1.5,1.5,0,0,1-.325-1.636A1.5,1.5,0,0,1-23.474-25H-9.253a1.5,1.5,0,0,1,1.387.927,1.5,1.5,0,0,1-.325,1.637l-5.445,5.445V-10.5a1.5,1.5,0,0,1-.808,1.331A1.506,1.506,0,0,1-15.139-9Zm-2.42-3.234,2.391,1.673v-6.747a.766.766,0,0,1,.224-.542l5.617-5.617H-23.4l5.616,5.617a.766.766,0,0,1,.224.542Z" transform="translate(24.976 25)"/></svg>