
<svg xmlns="http://www.w3.org/2000/svg" width="19.625" height="16" viewBox="0 0 19.625 16"><defs><style>.a{fill:#fff;}</style></defs><path class="a" d="M7.09,1.562A2.438,2.438,0,1,1,4.621,4,2.456,2.456,0,0,1,7.09,1.562m2.836,9A2.658,2.658,0,0,1,12.6,13.2v1.237H1.582V13.2a2.658,2.658,0,0,1,2.671-2.637h.205a7.172,7.172,0,0,0,5.262,0h.2M7.09,0A4.026,4.026,0,0,0,3.038,4a4.051,4.051,0,0,0,8.1,0A4.026,4.026,0,0,0,7.09,0ZM9.925,9H9.4A5.573,5.573,0,0,1,4.782,9H4.254A4.228,4.228,0,0,0,0,13.2v1.3A1.51,1.51,0,0,0,1.519,16H12.66a1.51,1.51,0,0,0,1.519-1.5V13.2A4.228,4.228,0,0,0,9.925,9Z"/><path class="a" d="M433.619,142.161H431.89v-1.729a.433.433,0,0,0-.432-.432h-.864a.433.433,0,0,0-.432.432v1.729h-1.729a.433.433,0,0,0-.432.432v.864a.433.433,0,0,0,.432.432h1.729v1.729a.433.433,0,0,0,.432.432h.864a.433.433,0,0,0,.432-.432V143.89h1.729a.433.433,0,0,0,.432-.432v-.864A.433.433,0,0,0,433.619,142.161Z" transform="translate(-414.426 -135.536)"/></svg>