
<svg xmlns="http://www.w3.org/2000/svg" width="16" height="16" viewBox="0 0 16 16"><defs><style>.a{fill:#fff;}</style></defs><path class="a" d="M6,6.5a1,1,0,0,0-1-1H4.5a2,2,0,0,0-2,2V9a2,2,0,0,0,2,2H5a1,1,0,0,0,1-1ZM11.5,11a2,2,0,0,0,2-2V7.5a2,2,0,0,0-2-2H11a1,1,0,0,0-1,1V10a1,1,0,0,0,1,1ZM8,0A8.152,8.152,0,0,0,0,8v.5A.5.5,0,0,0,.5,9H1a.5.5,0,0,0,.5-.5V8a6.5,6.5,0,0,1,13,0h0c0,.076,0,5.179,0,5.179A1.321,1.321,0,0,1,13.179,14.5H10A1.5,1.5,0,0,0,8.5,13h-1a1.5,1.5,0,1,0,0,3h5.679A2.821,2.821,0,0,0,16,13.179V8A8.152,8.152,0,0,0,8,0Z"/></svg>