
<svg xmlns="http://www.w3.org/2000/svg" width="18.286" height="16" viewBox="0 0 18.286 16"><defs><style>.a{fill:#fff;}</style></defs><path class="a" d="M16.471,35.429H2.857a.571.571,0,1,1,0-1.143H16.571a.571.571,0,0,0,.571-.571A1.714,1.714,0,0,0,15.429,32H2.286A2.286,2.286,0,0,0,0,34.286V45.714A2.286,2.286,0,0,0,2.286,48H16.471a1.768,1.768,0,0,0,1.814-1.714V37.143A1.768,1.768,0,0,0,16.471,35.429Zm-1.614,7.429A1.143,1.143,0,1,1,16,41.714,1.143,1.143,0,0,1,14.857,42.857Z" transform="translate(0 -32)"/></svg>