
<svg xmlns="http://www.w3.org/2000/svg" width="11.25" height="15" viewBox="0 0 11.25 15"><defs><style>.a{fill:#fff;}</style></defs><path class="a" d="M6.563,3.984V0H.7A.7.7,0,0,0,0,.7V14.3a.7.7,0,0,0,.7.7h9.844a.7.7,0,0,0,.7-.7V4.688H7.266A.705.705,0,0,1,6.563,3.984ZM8.438,10.9a.353.353,0,0,1-.352.352H3.164a.353.353,0,0,1-.352-.352v-.234a.353.353,0,0,1,.352-.352H8.086a.353.353,0,0,1,.352.352Zm0-1.875a.353.353,0,0,1-.352.352H3.164a.353.353,0,0,1-.352-.352V8.789a.353.353,0,0,1,.352-.352H8.086a.353.353,0,0,1,.352.352Zm0-2.109v.234a.353.353,0,0,1-.352.352H3.164a.353.353,0,0,1-.352-.352V6.914a.353.353,0,0,1,.352-.352H8.086A.353.353,0,0,1,8.438,6.914ZM11.25,3.571V3.75H7.5V0h.179a.7.7,0,0,1,.5.205l2.868,2.871A.7.7,0,0,1,11.25,3.571Z"/></svg>