<svg xmlns="http://www.w3.org/2000/svg" width="13.125" height="15" viewBox="0 0 13.125 15">
    <defs>
        <style>.a{fill:#70A1FF;}</style>
    </defs>
    <path class="a" d="M4.336,8.438H3.164a.353.353,0,0,1-.352-.352V6.914a.353.353,0,0,1,.352-.352H4.336a.353.353,0,0,1,.352.352V8.086A.353.353,0,0,1,4.336,8.438ZM7.5,8.086V6.914a.353.353,0,0,0-.352-.352H5.977a.353.353,0,0,0-.352.352V8.086a.353.353,0,0,0,.352.352H7.148A.353.353,0,0,0,7.5,8.086Zm2.813,0V6.914a.353.353,0,0,0-.352-.352H8.789a.353.353,0,0,0-.352.352V8.086a.353.353,0,0,0,.352.352H9.961A.353.353,0,0,0,10.313,8.086ZM7.5,10.9V9.727a.353.353,0,0,0-.352-.352H5.977a.353.353,0,0,0-.352.352V10.9a.353.353,0,0,0,.352.352H7.148A.353.353,0,0,0,7.5,10.9Zm-2.813,0V9.727a.353.353,0,0,0-.352-.352H3.164a.353.353,0,0,0-.352.352V10.9a.353.353,0,0,0,.352.352H4.336A.353.353,0,0,0,4.688,10.9Zm5.625,0V9.727a.353.353,0,0,0-.352-.352H8.789a.353.353,0,0,0-.352.352V10.9a.353.353,0,0,0,.352.352H9.961A.353.353,0,0,0,10.313,10.9Zm2.813-7.617V13.594A1.407,1.407,0,0,1,11.719,15H1.406A1.407,1.407,0,0,1,0,13.594V3.281A1.407,1.407,0,0,1,1.406,1.875H2.813V.352A.353.353,0,0,1,3.164,0H4.336a.353.353,0,0,1,.352.352V1.875h3.75V.352A.353.353,0,0,1,8.789,0H9.961a.353.353,0,0,1,.352.352V1.875h1.406A1.407,1.407,0,0,1,13.125,3.281ZM11.719,13.418V4.688H1.406v8.73a.176.176,0,0,0,.176.176h9.961A.176.176,0,0,0,11.719,13.418Z"/>
</svg>