
<svg xmlns="http://www.w3.org/2000/svg" width="31.828" height="21.219" viewBox="0 0 31.828 21.219"><defs><style>.a{fill:#b3b3b3;}</style></defs><path class="a" d="M972.325-2044.636a10.609,10.609,0,0,1,10.61-10.609h10.609a10.609,10.609,0,0,1,10.61,10.609,10.61,10.61,0,0,1-10.61,10.61H982.935A10.61,10.61,0,0,1,972.325-2044.636Zm10.61,7.073a7.069,7.069,0,0,0,7.073-7.073,7.069,7.069,0,0,0-7.073-7.073,7.069,7.069,0,0,0-7.073,7.073,7.069,7.069,0,0,0,7.073,7.073" transform="translate(-972.325 2055.245)"/></svg>