
<svg xmlns="http://www.w3.org/2000/svg" width="15" height="20" viewBox="0 0 15 20"><defs><style>.a{fill:#70a1ff;}</style></defs><path class="a" d="M8.75,5.313V0H.938A.935.935,0,0,0,0,.938V19.063A.935.935,0,0,0,.938,20H14.063A.935.935,0,0,0,15,19.063V6.25H9.688A.94.94,0,0,1,8.75,5.313Zm2.986,8.256L7.97,17.307a.666.666,0,0,1-.939,0L3.264,13.569A.625.625,0,0,1,3.7,12.5H6.25V9.375a.625.625,0,0,1,.625-.625h1.25a.625.625,0,0,1,.625.625V12.5H11.3A.625.625,0,0,1,11.736,13.569ZM14.727,4.1,10.9.273A.937.937,0,0,0,10.238,0H10V5h5V4.762A.935.935,0,0,0,14.727,4.1Z" transform="translate(15 20) rotate(180)"/></svg>