<svg xmlns="http://www.w3.org/2000/svg" width="357.876" height="244.294" viewBox="0 0 357.876 244.294"><defs><style>.a{fill:#eef5ff;}.b{fill:#e7e8e9;}.c{fill:#c7c7c7;}.d{fill:#86bdff;}.e{fill:#add2ff;}.f{fill:#60a8ff;}.g{fill:#70a1ff;}.h{fill:#fff;}.i{fill:#4a5157;}.j{fill:#e7e8ea;}</style></defs><path class="a" d="M8,0H349.24a8,8,0,0,1,8,8V244.294a0,0,0,0,1,0,0H0a0,0,0,0,1,0,0V8A8,8,0,0,1,8,0Z" transform="translate(0 0)"/><g transform="translate(249.563 89.469)"><rect class="b" width="26.65" height="5.711" rx="2.855" transform="translate(65.799 31.092)"/><path class="c" d="M522,225.317a2.856,2.856,0,0,0,2.855,2.855h20.939a2.856,2.856,0,0,0,2.856-2.855,2.907,2.907,0,0,0-.032-.317H522.032A2.892,2.892,0,0,0,522,225.317Z" transform="translate(-456.201 -191.37)"/><path class="b" d="M420.89,172h51.443a4.547,4.547,0,0,1,4.114,2.612l14.017,29.81a2.183,2.183,0,0,1-1.975,3.112H435.932a4.061,4.061,0,0,1-3.683-2.351l-13.7-29.511A2.583,2.583,0,0,1,420.89,172Z" transform="translate(-418.303 -172)"/><ellipse class="c" cx="2.855" cy="5.076" rx="2.855" ry="5.076" transform="matrix(0.936, -0.352, 0.352, 0.936, 24.853, 15.29)"/><path class="c" d="M520.448,207.475a2.184,2.184,0,0,0,1.395-3.034l-14.018-29.81a4.538,4.538,0,0,0-3.664-2.579Z" transform="translate(-449.682 -172.019)"/></g><rect class="d" width="357.875" height="43.783" transform="translate(0 200.511)"/><g transform="translate(201.146 125.002)"><path class="e" d="M413.152,378.4h-7.614L403,360h10.152Z" transform="translate(-364.294 -276.242)"/><path class="f" d="M404.4,370.152h8.752V360H403Z" transform="translate(-364.294 -276.242)"/><path class="e" d="M363.171,241.269l15.993,77.413h127.3V240Z" transform="translate(-349.738 -232.386)"/><path class="f" d="M365.762,253.811l140.7,27.218V240l-143.3,1.269Z" transform="translate(-349.738 -232.386)"/><rect class="e" width="156.729" height="10.787"/></g><g transform="translate(116.19 26.977)"><path class="c" d="M250.789,218.7l19.059,94.14s1.733,4.043-2.888,6.93-6.93-.577-7.508,5.2h23.1L271,231.988h3.465l30.61,89.519a18.575,18.575,0,0,0,4.043,2.31,27.5,27.5,0,0,0,10.4,2.31c5.2,0,3.465-4.621,3.465-4.621l-6.353-3.465-4.043-4.62-21.947-94.14Z" transform="translate(-223.709 -126.577)"/><path class="g" d="M240.916,153.269l-.577,33.5,48.514,1.732,2.888-43.894-1.155-10.973a35.318,35.318,0,0,0-23.1-5.2c-13.284,1.733-17.9,2.888-17.9,2.888a172.12,172.12,0,0,0-17.9,11.551Z" transform="translate(-216.723 -93.485)"/><path class="h" d="M317.284,110.6s1.155,1.732,0,4.62,0,4.621,1.733,10.4,6.353,24.834,9.818,30.61,8.086,4.621,9.241,2.888,1.155-12.706-4.043-23.1-10.4-20.214-9.818-22.524,2.5-11.551-4.524-14.727S317.284,110.6,317.284,110.6Z" transform="translate(-247.466 -82.58)"/><path class="c" d="M309.952,99.012l4.043,10.973s0,.578,1.155,0,5.2-6.93,5.2-6.93.577,0,0-1.733L314.572,84Z" transform="translate(-245.331 -77.346)"/><path class="h" d="M323.67,101.512s-4.043-.577-5.775-4.043-2.887-6.931-1.155-8.086S325.98,95.159,323.67,101.512Z" transform="translate(-247.498 -79.268)"/><path class="i" d="M285.4,102.112c-6.353-5.775-4.621-17.9-4.043-20.214s3.465-10.973,12.706-7.508c0,0,5.2-2.31,9.241.577s2.31,12.706-1.155,15.594S285.4,102.112,285.4,102.112Z" transform="translate(-234.641 -73.515)"/><g transform="translate(35.744 186.267)"><path class="i" d="M271.95,374c-4.62,2.888-6.93-.577-7.508,5.2h23.1l-1.507-12.128h-11.2S276.57,371.109,271.95,374Z" transform="translate(-264.442 -367.066)"/><path class="i" d="M334.641,375.729a18.577,18.577,0,0,0,4.043,2.31,27.5,27.5,0,0,0,10.4,2.31c5.2,0,3.465-4.621,3.465-4.621l-6.353-3.465-4.043-4.62-.135-.577H331.679Z" transform="translate(-289.015 -367.066)"/></g><path class="h" d="M208.624,170.746l15.882-16.893,7.8,8.807v2.455l-9.241,10.251,20.792,21.369-5.775,5.775-29.455-28.3S207.47,173.056,208.624,170.746Z" transform="translate(-208.111 -102.876)"/><path class="h" d="M278.521,116.479s8.086,5.2,9.818,5.775,5.776-4.621,6.93-5.775l-1.155-10.4s5.2,0,6.353-4.62,1.733-12.706.577-16.172-15.594-5.2-18.481,0,0,16.749,0,16.749S277.944,114.746,278.521,116.479Z" transform="translate(-233.826 -76.62)"/><path class="j" d="M301.286,118.5l-1.155-10.4s5.2,0,6.353-4.62c1.132-4.526,1.7-12.366.642-15.943-4.834,6.624-1.76,10.24-1.219,11.322.577,1.155-1.155,1.733-2.31,2.31s.577,2.31,0,2.888,0,1.733-1.732,2.31-6.931.577-6.931.577c3.584,3.225,3.609,10.227,3.113,15.08C299.415,120.66,300.71,119.077,301.286,118.5Z" transform="translate(-239.842 -78.642)"/><path class="i" d="M280.977,90.83l1.251,7.7,1.251,2.407V95.161a3.572,3.572,0,0,1-.577-4.043c1.155-2.31,2.888-2.888,4.043,0,0,0,1.155,0,1.155-1.733s-.577-4.043,1.155-4.043,3.465,1.732,8.086,1.732a22.015,22.015,0,0,0,7.508-1.155l-3.465-6.93-14.439.577-4.62,3.465Z" transform="translate(-234.741 -75.516)"/></g><g transform="translate(23.478 132.617)"><path class="f" d="M75.325,289.493c-1.9-1.9-8.883-5.711-9.518-16.5S63.9,255.229,62,253.96c0,0,8.249,5.076,9.518,9.518a26.219,26.219,0,0,1,3.173-6.98c1.9-2.538,3.807-11.422,0-16.5a25.726,25.726,0,0,1,11.422,20.3s3.807-3.173,4.442-7.614a9.826,9.826,0,0,1,3.173-6.345s0,6.98,1.269,9.518,4.442,13.325-1.9,19.67c0,0,4.442-1.269,9.518-6.345,0,0-3.173,5.711-5.076,8.883s-7.614,10.152-13.96,11.422S75.325,289.493,75.325,289.493Z" transform="translate(-62 -240)"/><path class="e" d="M85.056,316H73l2.446,26.3a1.089,1.089,0,0,0,1.084.988H93.582a1.089,1.089,0,0,0,1.084-.988L97.112,316Z" transform="translate(-66.02 -267.776)"/><path class="f" d="M97.112,316H73l.892,9.59,22.143,1.987Z" transform="translate(-66.02 -267.776)"/><rect class="e" width="31.092" height="5.711" rx="2.333" transform="translate(3.173 47.59)"/></g></svg>