
<svg xmlns="http://www.w3.org/2000/svg" xmlns:xlink="http://www.w3.org/1999/xlink" width="357.664" height="244.583" viewBox="0 0 357.664 244.583"><defs><style>.a{fill:none;}.b{fill:#eef5ff;}.c{fill:#dfe9f4;}.d{fill:#86bdff;}.e{fill:#fff;}.f{fill:#4a5157;}.g{fill:#70a1ff;}.h{fill:#c7c7c7;}.i{fill:#e7e8ea;}.j{fill:#add2ff;}.k{fill:#60a8ff;}.l{fill:#d0e5ff;}.m{clip-path:url(#a);}.n{fill:#7f878e;}.o{fill:#8b8b8b;}.p{fill:#e8e8e8;}</style><clipPath id="a"><ellipse class="a" cx="13.402" cy="13.402" rx="13.402" ry="13.402"/></clipPath></defs><path class="b" d="M8,0H349.664a8,8,0,0,1,8,8V244.584a0,0,0,0,1,0,0H0a0,0,0,0,1,0,0V8A8,8,0,0,1,8,0Z" transform="translate(0 0)"/><ellipse class="c" cx="14.679" cy="14.679" rx="14.679" ry="14.679" transform="translate(80.648 61.584)"/><ellipse class="c" cx="14.679" cy="14.679" rx="14.679" ry="14.679" transform="translate(114.304 114.914)"/><ellipse class="c" cx="15.317" cy="15.317" rx="15.317" ry="15.317" transform="translate(222.888 70.47)"/><ellipse class="c" cx="13.722" cy="13.722" rx="13.722" ry="13.722" transform="translate(206.388 11.488)"/><ellipse class="c" cx="14.36" cy="14.36" rx="14.36" ry="14.36" transform="translate(122.56 12.764)"/><rect class="d" width="357.664" height="44.037" transform="translate(0 200.546)"/><g transform="translate(140.672 31.075)"><path class="e" d="M881.652,357.643v7.149s-8.937,5.362-11.32,6.554-1.788,2.383-1.788,2.383H888.8v-4.766c0-2.383-.6-13.7-.6-13.7Z" transform="translate(-855.834 -180.517)"/><path class="f" d="M888.8,377.69c-3.168.445-11.659,1.618-13.108,1.618-1.119,0-1.537-1.167-1.694-2.04-1.547.893-2.926,1.669-3.668,2.04-2.384,1.192-1.788,2.383-1.788,2.383H888.8Z" transform="translate(-855.834 -188.479)"/><path class="e" d="M914.016,359.928v5.958c0,.6-8.937,7.149-10.129,7.745s-2.383,2.383-1.788,3.575c0,0,14.3-1.192,19.662-3.575l-.6-13.108Z" transform="translate(-867.94 -182.206)"/><path class="f" d="M907.76,379.375a2.13,2.13,0,0,1-.975-1.658c-1.385.994-2.524,1.769-2.9,1.956-1.192.6-2.383,2.383-1.788,3.575,0,0,14.3-1.192,19.662-3.575l-.138-3.046C916.338,379.1,909.374,380.451,907.76,379.375Z" transform="translate(-867.94 -188.247)"/><path class="f" d="M887.243,110.19c-2.383,0-5.958-1.788-6.554-4.767s4.171-2.979,4.766-10.724S889.03,78.612,898.563,79.8s9.532,13.107,10.128,16.682,7.746,9.533,4.171,13.108S887.243,110.19,887.243,110.19Z" transform="translate(-860.233 -79.69)"/><path class="g" d="M873.316,154.25l1.192,19.517-11.32,41.99,8.639,58.846,12.512.592-1.787-52.636,7.746-17.151,1.787,70.379H904.6s7.15-57.959,7.745-64.465,2.979-27.8-3.575-42.582v-1.775h2.979l4.223-33.533a5.732,5.732,0,0,0-3.7-6.074c-5.364-2.017-14.966-4.952-23.762-4.158-13.108,1.183-23.236,4.731-25.023,6.506s-13.108,29.57-13.108,29.57l12.512,2.957,5.362-11.829Z" transform="translate(-849.286 -95.383)"/><path class="h" d="M881.769,200.541l-11.32,42.3,8.639,59.282,12.512.6-1.787-53.026,7.745-17.279,1.787,70.9h12.512s7.15-58.388,7.746-64.942c.589-6.473,2.914-27.471-3.342-42.338l-34.7,1.031Z" transform="translate(-856.547 -122.913)"/><path class="e" d="M891.787,111.893s10.923,8.342,11.519,8.342,4.171-5.362,4.766-5.958,1.688-4.071,1.688-4.071-1.688-.1-2.284-3.078-.6-4.766,0-8.937c0,0,2.383,1.192,2.979-1.788s-2.979-6.553-5.362-2.383c0,0-6.554-1.787-7.745-7.149a13.406,13.406,0,0,1-5.958,4.766s-1.192,12.512,4.171,13.7v4.171Z" transform="translate(-864.082 -82.287)"/><g transform="translate(27.196 7.86)"><path class="i" d="M897.731,116.34v3.809l-.453.287.155.011,5.959-4.171A19.056,19.056,0,0,1,897.731,116.34Z" transform="translate(-893.449 -100.786)"/><path class="i" d="M894.79,106.922a3.465,3.465,0,0,1-.719-3c.6-1.788.6-.6-.6-1.788s-1.192-.6,0-2.979c.858-1.716.789-5.285.684-7.149a9.986,9.986,0,0,1-2.769,1.489S890.322,104.748,894.79,106.922Z" transform="translate(-891.278 -92.005)"/></g><path class="i" d="M928.682,112.2l4.687,2.983a1.115,1.115,0,0,0,1.481-.259l8.8-11.394a1.115,1.115,0,0,0-.227-1.583L938.7,98.5a1.115,1.115,0,0,0-1.552.239l-8.76,11.852A1.114,1.114,0,0,0,928.682,112.2Z" transform="translate(-877.427 -86.419)"/><path class="e" d="M941.933,110.207s-.6,2.979-1.192,4.766c0,0-1.787,4.766-1.191,7.745s6.554,25.619,5.362,29.79-.6,5.958-4.171,6.554-5.362-3.575-5.958-7.149S933,122.122,933,120.335a13.579,13.579,0,0,1,1.787-6.554C935.975,111.994,942.528,103.653,941.933,110.207Z" transform="translate(-879.175 -89.835)"/><path class="e" d="M896.588,182.35a7.369,7.369,0,0,1,8.341-1.192c4.767,2.383-1.787,4.171-1.787,4.171Z" transform="translate(-866.003 -116.483)"/><path class="e" d="M933.629,119.081a5.559,5.559,0,0,1,0-4.841c1.192-2.9-.447-4.245.075-7.447s2.9-6.777,4.691-5.586,4.171,4.17,3.575,5.958S933.629,119.081,933.629,119.081Z" transform="translate(-879.212 -87.389)"/><path class="i" d="M899.62,188.685l7.793-12.664a1.647,1.647,0,0,1,2.335-.494l16.384,11.265a1.646,1.646,0,0,1,.493,2.18l-7.3,12.652a1.647,1.647,0,0,1-2.34.547l-16.878-11.252A1.647,1.647,0,0,1,899.62,188.685Z" transform="translate(-867.012 -114.666)"/><path class="e" d="M849.461,179.606s-1.787,4.171,0,7.15,8.342,3.575,11.916,3.575,19.066-4.171,20.853-3.575,5.958,5.362,8.341,4.766a2.413,2.413,0,0,0,1.192-4.171c-1.192-1.192-3.575-2.979-4.171-3.575s-1.787-3.575-6.554-2.979-16.086-.6-18.47-1.192S849.461,179.606,849.461,179.606Z" transform="translate(-848.667 -116.133)"/><ellipse class="h" cx="2.085" cy="2.085" rx="2.085" ry="2.085" transform="translate(44.288 71.78)"/></g><g transform="translate(229.323 99.416)"><path class="j" d="M1047.031,325,1043,350.529h3.023l6.55-25.529Z" transform="translate(-1008.477 -237.91)"/><path class="j" d="M1137.542,325l4.031,25.529h-3.023L1132,325Z" transform="translate(-1040.675 -237.91)"/><path class="k" d="M1137.542,325H1132l4.421,17.232h3.842Z" transform="translate(-1040.675 -237.91)"/><path class="k" d="M1045.053,342.232h3.842L1053.316,325h-5.542Z" transform="translate(-1009.22 -237.91)"/><path class="j" d="M1025.106,323,1020,355.549h3.829l8.3-32.549Z" transform="translate(-1000.156 -237.187)"/><path class="j" d="M1121.021,323l5.106,32.549H1122.3L1114,323Z" transform="translate(-1034.163 -237.187)"/><path class="k" d="M1121.021,323H1114l3.9,15.317h5.519Z" transform="translate(-1034.163 -237.187)"/><path class="k" d="M1024.235,338.317h5.519l3.9-15.317h-7.021Z" transform="translate(-1001.689 -237.187)"/><path class="j" d="M992.158,229.043c-5.228,8.864-3.829,16.594,1.915,20.423s5.744,21.061,13.4,27.444,23.614,10.212,52.334,8.3,38.294-16.594,40.208-26.805,6.382-48.5-7.659-60.631-54.249-10.85-61.27-4.468-11.807,21.38-13.083,35.421C1018.006,228.724,999.5,216.6,992.158,229.043Z" transform="translate(-988.908 -188.543)"/><path class="k" d="M1102.916,214.242c-2.785-8.354-5.226-13.671-2.182-18.895-6.281-3.553-15.239-5.516-24.265-6.258,8.388,5.1,8.594,11.023,4.108,18.77-7.02,12.126-31.911,26.805-45.952,25.529l1.276,15.317-13.4-10.212s3.191,14.041,1.914,22.976c0,0,21.7-3.191,49.782,1.915,0,0,3.191.638,0-7.659s-3.191-18.508,4.468-19.785,14.679,1.276,19.147-1.276S1106.745,225.73,1102.916,214.242Z" transform="translate(-1001.061 -188.741)"/><path class="k" d="M1106.766,295.934c.183-.975.389-2.206.6-3.646-6.639,17.237-21.858,25.189-44.637,27.26-28.082,2.553-38.932-2.553-45.314-5.744-4-2-6.5-7.017-9.854-11.58,1.521,4.792,3.393,9.494,6.662,12.218,7.659,6.382,23.614,10.212,52.334,8.3S1104.851,306.145,1106.766,295.934Z" transform="translate(-995.656 -226.076)"/></g><g transform="translate(81.21 61.113)"><ellipse class="l" cx="14.714" cy="14.714" rx="14.714" ry="14.714"/><path class="k" d="M780.8,148.3a1.2,1.2,0,0,1-.861,1.469L769.842,152.4a1.2,1.2,0,0,1-1.469-.861l-1.666-6.388a1.2,1.2,0,0,1,.207-1.033c.481-.631.88-1.146,3.215-3.987.331-.4.954-1.332,1.519-1.47.561-.156,1.558.349,2.044.541,3.425,1.338,4.025,1.593,4.753,1.909a1.2,1.2,0,0,1,.685.8Z" transform="translate(-759.149 -131.373)"/><path class="e" d="M773.7,139.2c-.486-.191-1.483-.7-2.044-.541-.565.138-1.188,1.066-1.519,1.47-2.335,2.841-2.734,3.356-3.215,3.987a1.2,1.2,0,0,0-.232.853l7.856,2.832,4.263-6.443a1.208,1.208,0,0,0-.357-.248C777.721,140.794,777.12,140.539,773.7,139.2Z" transform="translate(-759.152 -131.373)"/><path class="j" d="M782.249,152.811l-6.149-2.87a1.691,1.691,0,0,0-2.183.694l-3.3,5.781a1.2,1.2,0,0,0,.655.017l10.093-2.633A1.2,1.2,0,0,0,782.249,152.811Z" transform="translate(-760.576 -135.407)"/></g><g transform="translate(114.837 113.14)"><ellipse class="l" cx="15.381" cy="15.381" rx="15.381" ry="15.381"/><g transform="translate(7.527 8.656)"><path class="e" d="M824.925,236.636l-3.178.486-1.451-9.5,3.178-.486Zm-3.237-10.55-.021,0a1.834,1.834,0,1,1,.021,0Zm14.692,8.8-3.177.485-.776-5.081c-.195-1.276-.788-2.077-1.937-1.9a1.756,1.756,0,0,0-1.453,1.4,2.155,2.155,0,0,0,.012.786l.81,5.3-3.176.485s-1.273-8.611-1.451-9.5l3.177-.486.205,1.347a3.191,3.191,0,0,1,2.622-2.007c2.091-.319,3.866.8,4.312,3.716l.832,5.445Zm-7.782-7.121c0-.01.01-.022.016-.033l0,.03Z" transform="translate(-819.639 -222.774)"/></g></g><g transform="translate(207.025 11.169)"><ellipse class="l" cx="13.402" cy="13.402" rx="13.402" ry="13.402"/><g class="m"><g transform="translate(-1.382 7.782)"><g transform="translate(0 0.94)"><path class="n" d="M963.081,67.712c-.672.45-1.747,0-1.613-2.548s-1.075-2.848-2.016-3h-.517c-.941.15-2.151.45-2.016,3s-.941,3-1.613,2.548c0,0-.535,2.539,3.878,2.7h.02C963.616,70.251,963.081,67.712,963.081,67.712Z" transform="translate(-952.445 -62.166)"/><path class="e" d="M960.429,70.433c-1.246-.747-1.994-.5-1.994-1.5v-1.45A1.493,1.493,0,0,0,959,66.321V64.576a1.5,1.5,0,1,0-2.991,0v1.744a1.493,1.493,0,0,0,.561,1.167v1.45c0,1-.748.748-1.994,1.5s-3.24,4.735-3.738,5.981l6.6,2.935V79.4l.063-.027.062.027v-.055l6.6-2.935C963.669,75.168,961.675,71.181,960.429,70.433Z" transform="translate(-950.835 -62.497)"/><path class="j" d="M960.429,74.093c-.889-.534-1.522-.561-1.813-.894a21.973,21.973,0,0,1-1.084,3.262,25.283,25.283,0,0,1-1.447-3.046,11.452,11.452,0,0,0-1.513.678c-1.246.748-3.24,4.735-3.738,5.981l6.6,2.935v.055l.063-.027.062.027V83.01l6.6-2.935C963.669,78.828,961.675,74.841,960.429,74.093Z" transform="translate(-950.835 -66.157)"/><path class="n" d="M960.922,63.535s-1.2,1.8-2.4,1.649l-.15-1.2.749-1.2,1.8-.15,1.2.9.15,1.649S961.222,65.034,960.922,63.535Z" transform="translate(-953.563 -62.336)"/></g><g transform="translate(14.901)"><path class="o" d="M984.247,66.463c-.292-.273-1.169.273-1.462-1.365s-.292-2.73.585-3.277c0,0,.292-1.365,2.339-1.092s1.754,2.73,1.754,2.73-.049,2.685-1.048,2.981A4.9,4.9,0,0,1,984.247,66.463Z" transform="translate(-977.232 -60.693)"/><path class="j" d="M981.784,73.578c-5.847,0-7.6,8.185-7.6,8.185l7.6,2.923,7.6-2.923S987.63,73.578,981.784,73.578Z" transform="translate(-974.183 -65.355)"/><path class="e" d="M985.657,63.044h-.828a1.486,1.486,0,0,0-1.487,1.486v2a1.478,1.478,0,0,0,.585,1.174v1.92a1.316,1.316,0,0,0,2.632,0V67.7a1.478,1.478,0,0,0,.584-1.174v-2A1.486,1.486,0,0,0,985.657,63.044Z" transform="translate(-977.497 -61.544)"/><ellipse class="p" cx="0.438" cy="0.731" rx="0.438" ry="0.731" transform="translate(9.354 3.254)"/><ellipse class="e" cx="0.438" cy="0.731" rx="0.438" ry="0.731" transform="translate(5.554 3.254)"/><path class="p" d="M986.218,65.168c.292,1.462,0,1.169-.292,1.462s.877.292.585.877a1.039,1.039,0,0,1-.878.585,8.254,8.254,0,0,1,1.688,2,1.311,1.311,0,0,0,.066-.393v-1.92a1.477,1.477,0,0,0,.585-1.174v-2a1.484,1.484,0,0,0-.871-1.349l-.883.156S985.926,63.706,986.218,65.168Z" transform="translate(-978.325 -61.621)"/><path class="n" d="M983.762,63.59c.877.585,2.631,0,2.631,0a1.443,1.443,0,0,0,.292.877c.292.292.292,1.169.292,1.169l.292-1.462-.584-1.462-1.462-.585-2.047.585-.292,2.338.292.585a2.116,2.116,0,0,1,.292-.877C983.762,64.466,983.762,63.59,983.762,63.59Z" transform="translate(-977.331 -61.212)"/></g><g transform="translate(7.548 1.282)"><path class="k" d="M977.456,79.285a2.511,2.511,0,0,0-1.821-2.426l-5.258-1.011-5.258,1.011a2.511,2.511,0,0,0-1.822,2.426l-.636,9.91h15.431Z" transform="translate(-962.662 -67.458)"/><path class="n" d="M2.955,0h0A2.955,2.955,0,0,1,5.911,2.955v1.2A1.945,1.945,0,0,1,3.966,6.1H1.945A1.945,1.945,0,0,1,0,4.157v-1.2A2.955,2.955,0,0,1,2.955,0Z" transform="translate(4.855)"/><path class="e" d="M974.123,64.241h-1.148a1.809,1.809,0,0,0-1.809,1.809v2.56a1.8,1.8,0,0,0,.582,1.328c-.005.057-.008.115-.008.174v2.56a1.81,1.81,0,0,0,3.62,0v-2.56c0-.059,0-.116-.009-.174a1.8,1.8,0,0,0,.583-1.328V66.05A1.81,1.81,0,0,0,974.123,64.241Z" transform="translate(-965.738 -63.259)"/><path class="p" d="M976.581,66.182a1.809,1.809,0,0,0-.925-1.578l-1.364.5c-.572,1.525.191,2.1.191,2.478s-.572.572-.572.572a.417.417,0,0,0,.191.572c.381.191-.191.763-.382.763s-.763.954-.763.954L976,72.95c0-.049.008-.1.008-.147v-2.56c0-.059,0-.116-.009-.174a1.8,1.8,0,0,0,.583-1.327Z" transform="translate(-966.387 -63.391)"/><path class="n" d="M970.867,66.758a2.758,2.758,0,0,0,.572-1.906,5.81,5.81,0,0,0,3.813,0s.191,1.525.763,1.716V65.042L974.68,63.9H971.63l-.572.954-.191.763Z" transform="translate(-965.63 -63.135)"/><path class="n" d="M974.2,70.47c-.684,0-1.239.384-1.239.858s.555.858,1.239.858,1.24-.384,1.24-.858S974.882,70.47,974.2,70.47Zm0,1.453c-.474,0-.858-.266-.858-.594s.384-.594.858-.594.858.266.858.594S974.672,71.923,974.2,71.923Z" transform="translate(-966.387 -65.513)"/><path class="n" d="M976,68.379a2.9,2.9,0,0,1-1.724,2.135.348.348,0,0,1,.008.057c0,.328-.384.594-.858.594s-.853-.264-.857-.588a2.367,2.367,0,0,1-1.717-2.008c-.191,2.479.572,3.051.953,3.242a3.806,3.806,0,0,0,3.051,0C976.57,71.24,976,68.379,976,68.379Z" transform="translate(-965.613 -64.756)"/></g></g></g></g><g transform="translate(224.14 69.796)"><ellipse class="l" cx="15.362" cy="15.362" rx="15.362" ry="15.362"/><path class="j" d="M1005.573,168.1,996,166.825v-13.4h5.106l1.612-1.019,1.015.071,3.772,4.343-.071,1.014Z" transform="translate(-985.77 -145.086)"/><path class="e" d="M1002.366,152.184l-6.825-.479a.76.76,0,0,0-.814.707l-1.035,14.709a.761.761,0,0,0,.708.814l10.651.749a.761.761,0,0,0,.814-.707l.731-11.037Zm-5.717,1.892a.255.255,0,0,1,.272-.236l2.536.179a.254.254,0,0,1,.236.271l-.036.507a.254.254,0,0,1-.271.236l-2.536-.178a.254.254,0,0,1-.236-.272Zm-.178,2.536.036-.507a.254.254,0,0,1,.271-.236l2.536.179a.253.253,0,0,1,.235.271l-.036.507a.253.253,0,0,1-.271.235l-2.536-.178A.255.255,0,0,1,996.471,156.612Zm3.977,8.687-.054.765a.254.254,0,0,1-.271.236l-.507-.036a.254.254,0,0,1-.236-.271l.054-.77a1.817,1.817,0,0,1-.969-.43.254.254,0,0,1,.009-.386l.4-.329a.262.262,0,0,1,.323,0,.766.766,0,0,0,.4.147l.891.063a.4.4,0,0,0,.4-.392.415.415,0,0,0-.25-.423l-1.4-.528a1.439,1.439,0,0,1-.9-1.446,1.416,1.416,0,0,1,1.453-1.334l.054-.765a.254.254,0,0,1,.272-.235l.507.036a.254.254,0,0,1,.236.271l-.054.77a1.816,1.816,0,0,1,.969.429.254.254,0,0,1-.01.386l-.4.329a.261.261,0,0,1-.323,0,.759.759,0,0,0-.4-.147l-.891-.063a.4.4,0,0,0-.4.392.415.415,0,0,0,.25.423l1.4.528a1.439,1.439,0,0,1,.9,1.446,1.415,1.415,0,0,1-1.453,1.334Z" transform="translate(-984.935 -144.833)"/><path class="k" d="M1011.184,156.432l-3.268-3.672a.875.875,0,0,0-.592-.287l-.219-.016-.315,4.475,4.588.323.015-.214A.824.824,0,0,0,1011.184,156.432Z" transform="translate(-989.674 -145.105)"/></g><g transform="translate(123.302 12.435)"><ellipse class="l" cx="13.933" cy="13.933" rx="13.933" ry="13.933"/><g transform="translate(5.724 6.416)"><g transform="translate(0 1.964)"><path class="j" d="M840.34,71.614a.84.84,0,0,0-.6-.236.92.92,0,0,0-.65.263L838.033,72.7l-.286-.159a9.377,9.377,0,0,1-4.143-4.146l-.156-.278,1.06-1.06a.886.886,0,0,0,.026-1.248l-1.958-1.958a.838.838,0,0,0-.6-.236.925.925,0,0,0-.65.264l-.481.484-.044.074a3.034,3.034,0,0,0-.435.769,3.188,3.188,0,0,0-.195.778c-.253,2.1.715,4.025,3.341,6.65,3.111,3.111,5.711,3.353,6.435,3.353.124,0,.2-.007.219-.009a3.223,3.223,0,0,0,.78-.2,3,3,0,0,0,.765-.433l.109-.086.45-.442a.883.883,0,0,0,.026-1.246Z" transform="translate(-830.134 -63.614)"/></g><g transform="translate(6.631 4.11)"><path class="e" d="M842.664,67.933a3.408,3.408,0,0,0-1.547-.885l-.269-.071-.077.266a2.007,2.007,0,0,1-.1.276l-.145.311.334.086a2.516,2.516,0,0,1,1.811,1.765l.057.2.421.024.125.013.4.037-.092-.386A3.428,3.428,0,0,0,842.664,67.933Z" transform="translate(-840.524 -66.976)"/></g><g transform="translate(6.833 2.133)"><path class="e" d="M844.153,65.437a5.337,5.337,0,0,0-2.922-1.492l-.389-.066.061.389c.018.116.034.23.046.347l.025.205.206.041a4.428,4.428,0,0,1,3.612,3.9l.024.218.329.047c.053,0,.107,0,.182,0l.4.013-.031-.324A5.316,5.316,0,0,0,844.153,65.437Z" transform="translate(-840.841 -63.879)"/></g><g transform="translate(6.411)"><path class="e" d="M845.406,62.736a7.477,7.477,0,0,0-4.868-2.176l-.358-.022.06.352c.018.115.04.232.064.354l.044.214.216.013a6.544,6.544,0,0,1,6.1,6.057l.021.28.28-.017c.066,0,.132-.009.227-.017l.4-.032-.022-.283A7.482,7.482,0,0,0,845.406,62.736Z" transform="translate(-840.18 -60.537)"/></g><g transform="translate(0.597 1.964)"><path class="k" d="M834.215,67.688l.631-.632a.886.886,0,0,0,.026-1.248l-1.958-1.958a.838.838,0,0,0-.6-.236.925.925,0,0,0-.65.264l-.481.484-.044.074c-.027.034-.047.073-.072.107Z" transform="translate(-831.069 -63.614)"/><path class="k" d="M845.059,76.015a.841.841,0,0,0-.6-.236.923.923,0,0,0-.65.264l-.631.631,3.146,3.146c.035-.025.073-.045.106-.071l.109-.086.45-.442a.883.883,0,0,0,.026-1.246Z" transform="translate(-835.45 -68.015)"/></g></g></g></svg>