
<svg xmlns="http://www.w3.org/2000/svg" width="358.25" height="245.185" viewBox="0 0 358.25 245.185"><defs><style>.a{fill:#eef5ff;}.b{fill:#dfe9f4;}.c{fill:#fff;}.d{fill:#86bdff;}.e{fill:#4a5157;}.f{fill:#e7e8ea;}.g{fill:#e8e9ec;}.h{fill:#70a1ff;}.i{fill:#c7c7c7;}.j{fill:#60a8ff;}.k,.p{fill:#add2ff;}.l,.m,.n{fill:none;stroke-miterlimit:10;}.m{stroke:#c7c7c7;stroke-linecap:round;stroke-dasharray:0 5;opacity:0.3;}.n{stroke:#add2ff;}.o,.p{stroke:none;}</style></defs><path class="a" d="M8,0H349.615a8,8,0,0,1,8,8V244.55a0,0,0,0,1,0,0H0a0,0,0,0,1,0,0V8A8,8,0,0,1,8,0Z" transform="translate(0.635 0)"/><path class="b" d="M1278.337,99.952,1273.2,94l-4.656.635c-.635,0-2.541,1.378-2.541,2.541V183.9a4.109,4.109,0,0,0,4.112,4.105h135a2.767,2.767,0,0,0,2.541-2.541l.635-3.412Z" transform="translate(-1242.498 -53.348)"/><rect class="c" width="141.013" height="92.738" rx="5.5" transform="translate(24.773 40.652)"/><rect class="d" width="358.25" height="43.828" transform="translate(0 201.357)"/><path class="c" d="M1571.827,296.041l2.541,50.18a5.516,5.516,0,0,1-2.223,3.494c-1.906,1.27-10.8,5.081-10.163,8.258l19.373-.953,3.176-63.519Z" transform="translate(-1350.462 -126.126)"/><path class="e" d="M1581.616,385.282c-3.691,1.03-8.389,3.314-12.33,3.314-2.508,0-3-1.083-2.863-2.18-2.51,1.552-4.773,3.381-4.442,5.038l19.373-.953Z" transform="translate(-1350.462 -159.609)"/><path class="f" d="M1577.757,301.122h12.066l.381-7.622-12.7,2.541Z" transform="translate(-1356.134 -126.126)"/><path class="c" d="M1530.811,292.27s6.987,45.734,7.622,49.545,1.27,4.446-1.27,5.717-9.528,3.811-10.163,7.622h19.691v-6.987c0-3.176-3.176-57.168-3.176-57.168Z" transform="translate(-1337.712 -125.214)"/><path class="e" d="M1544.468,384.021c-2.541,1.27-8.893,1.906-12.069,1.906-1.611,0-1.749-.817-1.5-1.622-1.949,1.221-3.608,2.714-3.9,4.481h19.691v-5.6A11.84,11.84,0,0,0,1544.468,384.021Z" transform="translate(-1337.712 -158.844)"/><path class="f" d="M1545.7,291l-12.7,1.27.971,6.352h12.179C1545.88,294,1545.7,291,1545.7,291Z" transform="translate(-1339.901 -125.214)"/><path class="e" d="M1547.176,110.641c-3.811-3.811-3.176-8.258-1.271-11.433S1544,90.315,1544,84.6s2.541-13.974,11.433-14.609,10.163,13.974,13.339,18.421,10.8,15.245,8.257,18.421S1547.176,110.641,1547.176,110.641Z" transform="translate(-1343.913 -44.581)"/><path class="c" d="M1528.854,123.27l-3.812-1.27s-5.717,0-12.069,8.893-13.974,23.5-13.974,23.5,0,3.811,16.515,13.339,11.433,1.27,11.433,1.27l-.953-2.223-13.974-12.069,12.7-15.88Z" transform="translate(-1327.497 -63.562)"/><path class="g" d="M1532.021,139.112l4.129-15.562-2.352-.784L1519,154.674l.445.159Z" transform="translate(-1334.793 -63.841)"/><path class="h" d="M1536.169,119.776s15.88-4.446,18.421-3.811,24.773,5.082,24.773,5.082a90.872,90.872,0,0,1-1.905,22.232c-2.541,11.434-5.717,17.785-3.811,22.232s8.893,15.88,8.257,28.584-4.446,39.382-4.446,39.382l-47.957-2.858s0-29.854,3.176-41.288a143.837,143.837,0,0,1,6.987-19.691v-17.15a11.488,11.488,0,0,1-6.987-8.893c-1.271-6.987,3.811-12.7,3.811-12.7Z" transform="translate(-1338.624 -61.338)"/><path class="c" d="M1558,195.838a24.829,24.829,0,0,1,7.622,0c4.447.635-6.352,7.622-6.352,7.622Z" transform="translate(-1349.021 -90.396)"/><path class="i" d="M1543.053,188.037l5.043,18.155a2.418,2.418,0,0,1-1.8,3.007l-23.874,5.305a2.417,2.417,0,0,1-2.849-1.7l-5.036-17.627a2.417,2.417,0,0,1,1.75-3.012l23.867-5.834A2.417,2.417,0,0,1,1543.053,188.037Z" transform="translate(-1333.129 -87.007)"/><path class="c" d="M1586.977,161.794s-6.352-14.609-7.622-20.961-1.271-12.7,1.27-15.245,6.352-1.27,6.352-1.27,3.811,1.906,6.352,10.8,8.893,28.584,7.622,32.395-34.936,9.528-34.936,9.528-3.176,4.446-6.352,5.082-10.163-.635-10.163-3.811,3.811-3.811,6.352-3.811,3.176-4.446,6.987-4.446S1586.977,161.794,1586.977,161.794Z" transform="translate(-1345.92 -64.292)"/><path class="g" d="M1610.57,189.867a11.665,11.665,0,0,0-.155-4.585,10.382,10.382,0,0,1-3.974,4.267c-3.811,1.906-30.489,9.528-30.489,9.528l-.083.278C1578.84,198.842,1609.362,193.493,1610.57,189.867Z" transform="translate(-1355.539 -86.648)"/><path class="c" d="M1550.271,105.273c0,2.291,7.622,9.528,7.622,9.528s.635,0,2.541-1.906,7.2-8.469,7.2-8.469a10.574,10.574,0,0,1-4.023-6.776c-.635-4.446,0-6.352,0-6.352s1.906.635,1.906-2.541-5.082-5.717-5.082-1.27c0,0-7.622-1.27-9.528-6.987a65.22,65.22,0,0,1-4.446,6.352s-1.271,13.339,6.987,13.974c0,0,.635,2.752-.635,3.282S1550.271,104.637,1550.271,105.273Z" transform="translate(-1344.785 -48.423)"/><g transform="translate(201.604 35.896)"><path class="g" d="M1552.811,98.573a12.924,12.924,0,0,1-3.176-.635,6.135,6.135,0,0,0,0-5.082c-1.089-2.179-1.244-2.964-1.266-6.344-.574.8-1.216,1.666-1.91,2.533,0,0-1.271,13.339,6.987,13.974C1553.447,103.019,1554.082,98.573,1552.811,98.573Z" transform="translate(-1546.389 -86.512)"/><path class="g" d="M1555.061,115.782c-1.173.488-2.334.532-2.506,1.036,7.429.634,8.223-4.318,8.223-4.318H1555.7S1556.331,115.252,1555.061,115.782Z" transform="translate(-1548.638 -95.993)"/></g><g transform="translate(295.366 124.498)"><path class="j" d="M1713.691,281.262s-2.541-12.069-7.622-12.069-7.622,2.541-9.528,5.717c0,0-1.906-11.433,11.433-15.245,0,0-7.622-6.352-13.974-3.811,0,0,3.176-10.163,13.974-3.176a39.086,39.086,0,0,1,.635-14.609c1.906-6.987,10.8-12.069,10.8-12.069s-4.446,5.717-1.27,10.8,4.446,15.245,2.541,18.421c0,0,6.352-3.176,7.622-7.622s0-10.8,2.541-13.974a103.482,103.482,0,0,0,2.541,11.434c1.27,3.811,1.27,14.61-3.176,19.691,0,0,12.069-6.987,14.61,5.717,0,0-5.4-6.034-11.751-1.588a23.864,23.864,0,0,0-8.893,12.7Z" transform="translate(-1694 -226)"/><path class="k" d="M1725.068,311H1713l2.449,26.324a1.09,1.09,0,0,0,1.085.989H1733.6a1.09,1.09,0,0,0,1.086-.989L1737.137,311Z" transform="translate(-1700.931 -257.008)"/><path class="j" d="M1737.137,311H1713l.893,9.6,22.166,1.989Z" transform="translate(-1700.931 -257.008)"/><rect class="k" width="31.125" height="5.717" rx="2.333" transform="translate(8.258 53.356)"/></g><g transform="translate(113.065 48.91)"><g class="l" transform="translate(-1409.234 -107)"><path class="o" d="M1428.323,107a15.2,15.2,0,0,0-15.2,14.883h16.169v15.5a15.2,15.2,0,0,0-.971-30.378Z"/><path class="p" d="M 1428.322998046875 110 C 1425.108642578125 110 1422.074951171875 111.2393798828125 1419.781005859375 113.4898529052734 C 1418.239990234375 115.0016326904297 1417.147827148438 116.8554916381836 1416.57763671875 118.8825836181641 L 1429.293823242188 118.8825836181641 L 1432.293823242188 118.8825836181641 L 1432.293823242188 121.8825836181641 L 1432.293823242188 133.7494201660156 C 1434.146850585938 133.1133880615234 1435.832153320313 132.0323791503906 1437.207885742188 130.5731811523438 C 1439.349487304688 128.3015441894531 1440.528930664063 125.3299865722656 1440.528930664063 122.2059326171875 C 1440.528930664063 118.9456405639648 1439.25927734375 115.8804779052734 1436.953857421875 113.5750579833984 C 1434.6484375 111.2696380615234 1431.583251953125 110 1428.322998046875 110 M 1428.322998046875 107 C 1436.720947265625 107 1443.528930664063 113.8080139160156 1443.528930664063 122.2059326171875 C 1443.528930664063 130.2779541015625 1437.238647460938 136.8769989013672 1429.293823242188 137.378173828125 L 1429.293823242188 121.8825836181641 L 1413.124877929688 121.8825836181641 C 1413.297729492188 113.6346130371094 1420.033203125 107 1428.322998046875 107 Z"/></g><path class="h" d="M1407,133.849a17.031,17.031,0,0,0,17.031,17.031c.366,0,.728-.016,1.088-.038V133.486h-18.109C1407.006,133.607,1407,133.727,1407,133.849Z" transform="translate(-1407 -116.662)"/></g><g transform="translate(33.983 89.562)"><line class="m" x1="74.399" transform="translate(0.581 4.129)"/><line class="m" x1="74.399" transform="translate(0.581 13.021)"/><line class="m" x1="74.399" transform="translate(0.581 21.914)"/><line class="m" x1="74.399" transform="translate(0.581 30.807)"/><g transform="translate(0 1.184)"><path class="h" d="M1283.371,210.6a.819.819,0,0,1-.5-.169,1.009,1.009,0,0,1-.222-1.325l11.259-17.819a2.131,2.131,0,0,1,1.46-.988,2.024,2.024,0,0,1,1.655.5l9.3,8.259a.372.372,0,0,0,.31.093.4.4,0,0,0,.272-.187l6.631-10.68a2.111,2.111,0,0,1,1.582-1.018,2.027,2.027,0,0,1,1.722.693l3.013,3.358a.378.378,0,0,0,.6-.041l1.841-2.635a2.117,2.117,0,0,1,1.479-.908,2.029,2.029,0,0,1,1.622.553l7.385,6.938a.375.375,0,0,0,.31.1.39.39,0,0,0,.277-.181l7.84-12.1a2.121,2.121,0,0,1,1.5-.974,2.028,2.028,0,0,1,1.667.572l1.825,1.764a.375.375,0,0,0,.309.107.39.39,0,0,0,.281-.18l4.086-6.252a.826.826,0,0,1,1.216-.222,1.011,1.011,0,0,1,.2,1.329l-4.086,6.252a2.122,2.122,0,0,1-1.5.965,2.028,2.028,0,0,1-1.662-.572l-1.826-1.764a.375.375,0,0,0-.31-.107.389.389,0,0,0-.28.182l-7.84,12.1a2.124,2.124,0,0,1-1.488.971,2.025,2.025,0,0,1-1.659-.548l-7.384-6.938a.383.383,0,0,0-.3-.1.391.391,0,0,0-.275.169l-1.841,2.636a2.1,2.1,0,0,1-1.572.917,2.052,2.052,0,0,1-1.662-.7l-3.012-3.358a.367.367,0,0,0-.321-.129.388.388,0,0,0-.3.19l-6.631,10.68a2.136,2.136,0,0,1-1.462,1,2.02,2.02,0,0,1-1.664-.5l-9.3-8.259a.371.371,0,0,0-.308-.094.392.392,0,0,0-.272.184l-11.259,17.819A.85.85,0,0,1,1283.371,210.6Z" transform="translate(-1282.5 -174.622)"/><g transform="translate(66.38)"><path class="h" d="M1392.144,178.557l.42-4.73a.818.818,0,0,0-1.131-.883l-3.958,1.968a.918.918,0,0,0-.134,1.512l3.538,2.762A.794.794,0,0,0,1392.144,178.557Z" transform="translate(-1387.003 -172.864)"/></g></g><path class="n" d="M1357.937,207.841h-74.98V171" transform="translate(-1282.667 -171)"/></g><g transform="translate(38.747 51.451)"><rect class="k" width="6.917" height="27.949" rx="3.167"/><rect class="h" width="6.917" height="14.609" rx="3.167" transform="translate(9.387 13.339)"/><rect class="k" width="6.917" height="19.056" rx="3.167" transform="translate(18.774 8.893)"/><rect class="h" width="6.917" height="22.232" rx="3.167" transform="translate(28.16 5.717)"/><rect class="k" width="6.917" height="8.258" rx="3.167" transform="translate(37.547 19.691)"/></g><g transform="translate(123.863 93.374)"><g transform="translate(3.811 1.588)"><rect class="k" width="3.933" height="27.949" rx="1.967" transform="translate(27.949 0) rotate(90)"/><rect class="h" width="3.933" height="14.609" rx="1.967" transform="translate(14.609 8.832) rotate(90)"/><rect class="k" width="3.933" height="19.056" rx="1.967" transform="translate(19.056 17.663) rotate(90)"/></g><path class="n" d="M1457.03,204H1424V177" transform="translate(-1424 -177)"/></g><rect class="k" width="25.408" height="1.27" rx="0.635" transform="translate(38.747 83.846)"/><rect class="k" width="25.408" height="1.27" rx="0.635" transform="translate(123.863 123.863)"/></svg>