
<svg xmlns="http://www.w3.org/2000/svg" width="358" height="244.728" viewBox="0 0 358 244.728"><defs><style>.a{fill:#eef5ff;}.b{fill:#86bdff;}.c{fill:#fff;}.d{fill:#4a5157;}.e{fill:#ebebed;}.f{fill:#c7c7c7;}.g{fill:#70a1ff;}.h{fill:#e7e8e9;}.i{fill:#add2ff;}.j{fill:#dfe9f4;}.k{fill:none;stroke:#70a1ff;stroke-miterlimit:10;stroke-width:0.5px;}</style></defs><g transform="translate(0.125)"><path class="a" d="M8,0H349.875a8,8,0,0,1,8,8V244.728a0,0,0,0,1,0,0H0a0,0,0,0,1,0,0V8A8,8,0,0,1,8,0Z" transform="translate(-0.125 0)"/><rect class="b" width="357.875" height="43.86" transform="translate(0 200.868)"/><g transform="translate(152.346 28.851)"><path class="c" d="M282,1096l1.271,24.155s11.442,6.356,13.984,6.992-1.271-6.357-2.543-7.628-4.767-5.4-4.767-6.674v-15.892Z" transform="translate(-270.982 -917.627)"/><path class="d" d="M287.978,1130.767a16.932,16.932,0,0,1-4.4-4.767l.268,5.085s11.442,6.356,13.984,6.992c2.329.582-.674-5.232-2.172-7.191C296.857,1135.832,291.4,1133.047,287.978,1130.767Z" transform="translate(-271.557 -928.557)"/><path class="c" d="M317.271,1097.818S316,1116.888,316,1121.337c0,0,17.163,1.271,19.07,1.271s-.954-3.5-3.5-4.132-8.264-3.814-8.264-4.45,1.907-16.527,1.907-16.527Z" transform="translate(-283.37 -918.173)"/><path class="d" d="M331.574,1129.52c-.166-.041-.343-.094-.529-.156.371,2.2-1.674,1.3-7.735.792a13.261,13.261,0,0,1-7.159-2.345c-.092,1.975-.151,3.612-.151,4.57,0,0,17.163,1.271,19.07,1.271S334.116,1130.156,331.574,1129.52Z" transform="translate(-283.37 -929.217)"/><path class="e" d="M282.4,1103.628h7.544v-6.674L282,1096Z" transform="translate(-270.982 -917.627)"/><path class="e" d="M324.918,1104.174c.418-3.54.794-6.674.794-6.674l-7.946.318s-.182,2.726-.407,6.357Z" transform="translate(-283.865 -918.173)"/><path class="c" d="M326.271,874.543l4.45-2.543s2.543,0,4.45,4.45,10.806,30.511,10.806,31.147,1.271,7.628-3.178,8.263S325,899.333,325,899.333Z" transform="translate(-286.649 -836.014)"/><path class="f" d="M271.235,913.946l-3.178-41.318s-.636-3.179,4.45-4.45S294.119,865,294.119,865l14.62,4.45L308.1,879.62s4.132,5.4,2.861,11.76a9.765,9.765,0,0,1-6.992,7.628v20.977l12.077,45.767-6.992,51.488-13.984-.636,3.178-45.132-10.806-17.8v62.93H274.731l-9.535-67.38S262.018,930.155,271.235,913.946Z" transform="translate(-264.667 -833.464)"/><path class="g" d="M310.667,869.45,296.047,865s-16.527,1.907-21.612,3.178-4.45,4.45-4.45,4.45l3.157,41.037.339-.038,32.419,1.457V899.008a9.765,9.765,0,0,0,6.992-7.628c1.271-6.357-2.86-11.76-2.86-11.76Z" transform="translate(-266.595 -833.464)"/><path class="c" d="M293.167,851.614l9.746,10.277,10.064-9.217-4.979-3.5.636-3.178s5.085-.636,5.085-6.992,0-13.349-6.357-14.62-12.713,3.814-13.349,8.9,3.814,11.442,3.814,11.442S297.4,850.873,293.167,851.614Z" transform="translate(-275.051 -818.594)"/><path class="e" d="M316.454,826.522a38.234,38.234,0,0,0-1.369,8.567c0,3.178,3.178,5.085,2.543,5.721a25.355,25.355,0,0,1-2.543,1.907s1.271,3.178-.636,3.814S310,845.9,310,845.9s2.543,3.178,3.814,3.814a1.887,1.887,0,0,0,.357.121l.6-2.982s5.085-.636,5.085-6.992C319.853,834.7,319.852,829.12,316.454,826.522Z" transform="translate(-281.184 -819.444)"/><path class="d" d="M294.472,830.715s6.992-2.543,8.9-7.628c0,0,.636,5.721,3.814,7.628s1.271,9.535,1.271,9.535,3.814-.636,2.543-11.442-8.9-13.349-16.527-10.171c0,0-1.271-3.814-6.357-3.178s-6.357,5.085-6.357,9.535.636,6.992-1.907,10.806,0,6.356,0,6.356l1.271-3.178s1.271,7.628,4.45,8.263a39.372,39.372,0,0,1,1.907-10.17,11.645,11.645,0,0,0,4.874,4.132l-.424-4.767s-2.543,0-2.543-3.814S293.837,828.808,294.472,830.715Z" transform="translate(-269.788 -815.388)"/><path class="c" d="M308,910.171l1.907-3.072s0-7.1,4.45-7.1S308,910.171,308,910.171Z" transform="translate(-280.455 -846.216)"/><path class="e" d="M313.444,905.932l4.493-18.536a1.21,1.21,0,0,1,1.508-.879l6.58,1.88a1.21,1.21,0,0,1,.845,1.439l-4.235,18.071a1.209,1.209,0,0,1-1.423.908l-6.838-1.414A1.21,1.21,0,0,1,313.444,905.932Z" transform="translate(-282.426 -841.286)"/><path class="c" d="M272.064,870.482a5.015,5.015,0,0,1,5.509,3.814c1.271,4.45,6.992,30.512,6.992,30.512S297.278,894,297.914,893.366s2.543,0,4.45-1.907,3.814-1.271,4.45,0,.424,4.026-2.649,6.463-4.979,2.437-4.979,2.437-13.349,15.891-16.527,18.434-5.085-3.178-6.357-7.628-8.264-30.511-8.9-33.69S267.827,871.118,272.064,870.482Z" transform="translate(-265.602 -835.449)"/><path class="c" d="M327.089,898.89c2.9-1.449,3.39,5.721,4.874,7.946s.212,6.674.212,6.674l-5.085-1.7a39.431,39.431,0,0,1-1.271-6.568C325.818,903.34,324.547,900.161,327.089,898.89Z" transform="translate(-286.831 -845.741)"/></g><g transform="translate(0.636 82)"><ellipse class="h" cx="5.403" cy="5.403" rx="5.403" ry="5.403" transform="translate(96.62 44.496)"/><path class="f" d="M185.491,969.163a5.4,5.4,0,0,1-4.642,9.328,5.4,5.4,0,1,0,4.642-9.328Z" transform="translate(-82.418 -924.563)"/><rect class="f" width="8.264" height="15.256" rx="4.132" transform="translate(54.031 36.232)"/><rect class="f" width="57.845" height="8.264" rx="4.132" transform="translate(30.512 45.767)"/><rect class="h" width="57.845" height="8.264" rx="4.132" transform="translate(29.24 45.767)"/><rect class="f" width="70.558" height="40.682" rx="4.5" transform="translate(23.519)"/><rect class="h" width="69.287" height="40.046" rx="2.667" transform="translate(23.519)"/><rect class="f" width="9.535" height="8.899" rx="4.45" transform="translate(53.395 15.891)"/><path class="i" d="M222,1072.1a3.813,3.813,0,0,1-3.405-2.1l-41.953-83.271,6.812-3.431,34.734,68.94v-67.86h7.628v83.907A3.818,3.818,0,0,1,222,1072.1Z" transform="translate(-80.885 -929.715)"/><g transform="translate(95.756 53.586)"><path class="g" d="M242,1016.858l7.628.646V985H242Z" transform="translate(-200.454 -983.92)"/><path class="g" d="M183.454,983.3l-6.812,3.432,13.676,27.145,8.922.756Z" transform="translate(-176.642 -983.301)"/></g><rect class="i" width="157.643" height="10.171" transform="translate(0 50.217)"/></g><g transform="translate(256.17 34.961)"><path class="j" d="M3.578,0H56.809a3.578,3.578,0,0,1,3.578,3.578v42.3a3.578,3.578,0,0,1-3.578,3.578H1.753A1.753,1.753,0,0,1,0,47.708V3.578A3.578,3.578,0,0,1,3.578,0Z"/><rect class="c" width="59.645" height="48.011" transform="translate(1.048 0.039)"/><g transform="translate(21.222 7.357)"><path class="g" d="M479.259,836.574H462.812a1.4,1.4,0,0,0-1.426,1.383v16.532a1.406,1.406,0,0,0,1.426,1.383h16.447a1.4,1.4,0,0,0,1.424-1.383V837.957A1.4,1.4,0,0,0,479.259,836.574Zm-12.022,16.153h-2.916v-8.712h2.916Zm-1.458-9.9h-.02a1.666,1.666,0,1,1,.02,0Zm11.968,9.9h-2.915v-4.661c0-1.172-.422-1.971-1.477-1.971a1.593,1.593,0,0,0-1.5,1.06,1.944,1.944,0,0,0-.1.706v4.867h-2.914s.038-7.9,0-8.712h2.914v1.235a2.894,2.894,0,0,1,2.626-1.44c1.918,0,3.357,1.245,3.357,3.922v5Zm-6-7.45c.005-.008.012-.018.019-.027v.027Z" transform="translate(-461.386 -836.574)"/></g><path class="k" d="M449.822,879.947c1.173.9,2.972-.995,4.242-.239.235.139.416.358.657.485.931.493,2.125-.577,3.076-.124.613.292.936,1.152,1.615,1.164a1.671,1.671,0,0,0,.829-.32,3.794,3.794,0,0,1,2.759-.548c.556.138,1.062.454,1.628.542,1.469.228,2.922-1.124,4.337-.672a6.4,6.4,0,0,0,.825.3c.837.145,1.658-.636,2.476-.409a4.041,4.041,0,0,1,.742.376c1,.513,2.2.208,3.313.094.537-.055,1.079-.062,1.618-.069l.9-.012a22.489,22.489,0,0,1,4.78.276" transform="translate(-435.951 -844.866)"/><path class="k" d="M445.792,890.967a2.776,2.776,0,0,1,2.582-.083c.483.241.962.638,1.49.527a3.2,3.2,0,0,0,.859-.477.718.718,0,0,1,.9.04c.17.217.111.562.306.757s.571.111.81-.063a2.361,2.361,0,0,1,.73-.491c.61-.157,1.112.515,1.727.65,1.236.273,2.267-1.647,3.446-1.19a4.167,4.167,0,0,1,.585.351,1.871,1.871,0,0,0,2.228-.307,1.246,1.246,0,0,0,1.037.692,3.665,3.665,0,0,0,1.291-.164" transform="translate(-434.482 -848.889)"/></g><g transform="translate(293.875 183.427)"><path class="i" d="M0,0H45.132a0,0,0,0,1,0,0V40.046a0,0,0,0,1,0,0H3.667A3.667,3.667,0,0,1,0,36.38V0A0,0,0,0,1,0,0Z" transform="translate(18.616 0.914)"/><rect class="i" width="22.884" height="5.085" rx="2.543" transform="translate(0 10.679) rotate(-27.818)"/><path class="g" d="M515,1070.9l10.171,11.712h34.961V1061H515Z" transform="translate(-496.384 -1059.451)"/><path class="i" d="M526.3,1077.938h32.736V1063H512Z" transform="translate(-495.291 -1060.179)"/></g></g></svg>