
<svg xmlns="http://www.w3.org/2000/svg" xmlns:xlink="http://www.w3.org/1999/xlink" width="357.954" height="244.782" viewBox="0 0 357.954 244.782"><defs><style>.a{fill:none;}.b{fill:#eef5ff;}.c{fill:#dfe9f4;}.d{fill:#86bdff;}.e{fill:#60a8ff;}.f{fill:#add2ff;}.g{fill:#c7c7c7;}.h{fill:#ebebed;}.i{fill:#fff;}.j{fill:#70a1ff;}.k{fill:#4a5157;}.l{fill:#e7e8e9;}.m{clip-path:url(#a);}.n{fill:#d0e5ff;}.o{fill:#7f878e;}.p{clip-path:url(#b);}.q{fill:#efefef;}.r{fill:#8b8b8b;}.s{fill:#d6d6d6;}.t{fill:#e8e8e8;}.u{clip-path:url(#c);}.v{clip-path:url(#d);}.w{clip-path:url(#e);}.x{clip-path:url(#f);}</style><clipPath id="a"><ellipse class="a" cx="14.317" cy="14.317" rx="14.317" ry="14.317"/></clipPath><clipPath id="b"><ellipse class="a" cx="10.679" cy="10.679" rx="10.679" ry="10.679"/></clipPath><clipPath id="c"><ellipse class="a" cx="11.846" cy="11.846" rx="11.846" ry="11.846"/></clipPath><clipPath id="d"><ellipse class="a" cx="11.289" cy="11.289" rx="11.289" ry="11.289"/></clipPath><clipPath id="e"><ellipse class="a" cx="11.444" cy="11.444" rx="11.444" ry="11.444"/></clipPath><clipPath id="f"><ellipse class="a" cx="12.292" cy="12.292" rx="12.292" ry="12.292"/></clipPath></defs><path class="b" d="M8,0H349.954a8,8,0,0,1,8,8V244.782a0,0,0,0,1,0,0H0a0,0,0,0,1,0,0V8A8,8,0,0,1,8,0Z" transform="translate(0 0)"/><ellipse class="c" cx="10.809" cy="10.809" rx="10.809" ry="10.809" transform="translate(183.11 19.074)"/><ellipse class="c" cx="10.809" cy="10.809" rx="10.809" ry="10.809" transform="translate(183.745 66.759)"/><ellipse class="c" cx="14.305" cy="14.305" rx="14.305" ry="14.305" transform="translate(219.35 40.691)"/><ellipse class="c" cx="12.716" cy="12.716" rx="12.716" ry="12.716" transform="translate(247.325 81.382)"/><ellipse class="c" cx="12.08" cy="12.08" rx="12.08" ry="12.08" transform="translate(289.288 54.679)"/><ellipse class="c" cx="11.762" cy="11.762" rx="11.762" ry="11.762" transform="translate(265.763 15.259)"/><rect class="d" width="357.954" height="43.87" transform="translate(0 200.912)"/><g transform="translate(77.567 58.264)"><path class="e" d="M797,1014l8.265,16.531h17.379V1014Z" transform="translate(-767.117 -917.13)"/><rect class="f" width="6.994" height="36.24" rx="3.497" transform="translate(56.586 115.308)"/><rect class="f" width="6.994" height="36.24" rx="3.497" transform="translate(78.203 147.098) rotate(90)"/><path class="e" d="M842.815,1043h-.636a3.179,3.179,0,0,0-3.179,3.179v10.809h6.994v-10.809A3.179,3.179,0,0,0,842.815,1043Z" transform="translate(-782.414 -927.691)"/><rect class="f" width="60.401" height="9.537" rx="4.768" transform="translate(29.882 110.222)"/><rect class="f" width="40.691" height="39.419" rx="8.333" transform="translate(11.444 49.186)"/><rect class="e" width="33.061" height="39.419" rx="8.333" transform="translate(19.074 49.186)"/><path class="g" d="M812.829,1010s-4.451,20.346,20.981,20.346h17.166l-5.086,43.87h23.525s0-2.543-1.272-2.543-9.855-2.225-9.219-6.676,5.086-34.969,5.086-34.969h13.352l-5.086,38.783,22.253.636a2.567,2.567,0,0,0-1.907-3.179c-2.543-.636-8.9-2.543-7.629-9.537s6.358-32.426,6.358-32.426,2.543-8.265-9.537-9.537S812.829,1010,812.829,1010Z" transform="translate(-772.773 -915.673)"/><path class="h" d="M893.716,946l11.444,19.71-10.173,7.63L881,956.173Z" transform="translate(-797.711 -892.364)"/><path class="i" d="M886.355,964.656l10.583,12.988,10.173-7.63-7.081-12.2Z" transform="translate(-799.661 -896.668)"/><path class="j" d="M788,930.741s10.173,8.265,13.988,9.537V970.16h48.321l1.907-26.068s8.9-6.358,12.08-10.173c0,0-11.127-13.67-12.4-14.941s-20.346-6.358-23.525-6.994-24.8-1.272-26.7-.636S788,930.741,788,930.741Z" transform="translate(-763.84 -879.648)"/><path class="i" d="M852.812,876.81s-2.967,9.749-9.749,16.637c0,0-2.331,6.887,9.749,12.61,0,0,4.451-2.543,5.722-6.994a36.717,36.717,0,0,0,1.271-8.9,10.188,10.188,0,0,0,6.358,1.272c3.179-.636,3.179-6.358,3.179-6.358s4.451-7.629,4.451-11.444a3.725,3.725,0,0,0,.636-5.086c-1.907-3.179-8.265-9.537-13.987-5.722S852.176,871.723,852.812,876.81Z" transform="translate(-783.828 -861.639)"/><g transform="translate(71.527 9.471)"><path class="h" d="M875.858,896.859c3.179-.636,3.179-6.358,3.179-6.358s4.451-7.63,4.451-11.444a3.727,3.727,0,0,0,1.334-2.52c-4.993,2.718-5.784,6.51-5.784,9.514,0,3.815-.636,3.815-2.543,3.179s-.636.636-1.907,3.179-5.086,3.179-5.086,3.179A10.188,10.188,0,0,0,875.858,896.859Z" transform="translate(-865.049 -876.536)"/><path class="h" d="M865.679,913.216a36.71,36.71,0,0,0,1.272-8.9L862.5,900.5c1.993,5.979,1.237,12.956.4,17.331A11.238,11.238,0,0,0,865.679,913.216Z" transform="translate(-862.5 -885.264)"/></g><path class="k" d="M879.823,868.545c-1.907-3.179-8.265-9.537-13.987-5.722s-8.265,8.9-7.63,13.988c0,0-.169.553-.514,1.48a17.348,17.348,0,0,0,1.785-2.752s-.636-1.907,1.272-4.451,3.815-.636,2.543.636-4.451,9.537-4.451,11.444,3.815,5.086,6.358,6.994a10.188,10.188,0,0,0,6.358,1.272c2.963-.593,3.164-5.6,3.178-6.278-.931-.277-2.168-.221-3.284-1.14-1.8-1.483-4.344-1.483-5.616,1.7,0,0-4.451-2.543-4.451-4.451s1.272-7.629,3.179-10.173,3.179-2.543,5.087-.636,5.086,3.179,9.537,3.179A3.725,3.725,0,0,0,879.823,868.545Z" transform="translate(-789.222 -861.639)"/><ellipse class="i" cx="1.272" cy="2.225" rx="1.272" ry="2.225" transform="matrix(0.255, -0.967, 0.967, 0.255, 79.224, 25.688)"/><path class="i" d="M790.355,945l-2.384,31.154s-.636,2.543,2.543,3.815,49.592,0,49.592,0-3.5-8.583-9.855-8.583-28.452-3.338-28.452-3.338V952.312S798.143,951.676,790.355,945Z" transform="translate(-763.81 -892)"/><path class="h" d="M802.872,955.466v-3.154s-3.656-.636-11.444-7.312l-.563,7.361Z" transform="translate(-764.883 -892)"/><rect class="g" width="41.327" height="5.722" rx="2.861" transform="translate(52.771 81.611)"/><path class="l" d="M871.643,990h-35.6a1.771,1.771,0,1,0,0,3.179h35.6a1.771,1.771,0,1,0,0-3.179Z" transform="translate(-780.407 -908.389)"/><path class="l" d="M889,975.327l22.221-39.037A4.53,4.53,0,0,1,915.157,934h42.071a3.084,3.084,0,0,1,2.783,4.411l-17.606,36.916Z" transform="translate(-800.622 -887.993)"/><path class="g" d="M894.081,975.327,917.364,934h-1.239a4.531,4.531,0,0,0-3.937,2.289l-20.223,35.528a2.347,2.347,0,0,0,2.038,3.51Z" transform="translate(-801.59 -887.993)"/><ellipse class="g" cx="5.834" cy="3.145" rx="5.834" ry="3.145" transform="translate(124.66 72.343) rotate(-66.105)"/><g transform="translate(0 86.698)"><path class="f" d="M783,1079.8a3.459,3.459,0,0,1-.929-.125,3.5,3.5,0,0,1-2.568-3.372V1007h6.994v56.607l32.919-55.218,6.008,3.581L786,1078.092A3.5,3.5,0,0,1,783,1079.8Z" transform="translate(-760.744 -1001.278)"/><path class="f" d="M1044.424,1079.8a3.462,3.462,0,0,0,.929-.125,3.5,3.5,0,0,0,2.568-3.372V1007h-6.994v56.607l-32.919-55.218-6.008,3.581,39.419,66.123A3.5,3.5,0,0,0,1044.424,1079.8Z" transform="translate(-841.779 -1001.278)"/><g transform="translate(18.756 5.722)"><path class="e" d="M823.868,1028.816l7.874.451,9.838-16.5-6.008-3.581Z" transform="translate(-795.659 -1007.795)"/><path class="e" d="M779.5,1026.4l6.994.4V1007H779.5Z" transform="translate(-779.5 -1007)"/></g><g transform="translate(160.221 5.722)"><path class="e" d="M1008.008,1009.184l-6.008,3.581,13.913,23.338,8.431.483Z" transform="translate(-1002 -1007.795)"/><path class="e" d="M1063.224,1036.741l6.994.4V1007h-6.994Z" transform="translate(-1024.298 -1007)"/></g><path class="f" d="M2.833,0h210.5a2.833,2.833,0,0,1,2.833,2.833v.518a10,10,0,0,1-10,10H10a10,10,0,0,1-10-10V2.833A2.833,2.833,0,0,1,2.833,0Z"/></g><g transform="translate(73.117 142.648)"><path class="k" d="M887.253,1102.265c-1.271,0-9.855-2.225-9.219-6.676.052-.364.13-.907.229-1.589h-12.01L865,1104.809h23.525S888.524,1102.265,887.253,1102.265Z" transform="translate(-865 -1088.913)"/><path class="k" d="M926.846,1093.947c-2.339-.584-7.9-2.248-7.79-7.948h-11.18l-1.376,10.491,22.253.635A2.567,2.567,0,0,0,926.846,1093.947Z" transform="translate(-880.114 -1086)"/></g></g><g transform="translate(220.622 39.858)"><g class="m"><ellipse class="n" cx="14.317" cy="14.317" rx="14.317" ry="14.317"/><path class="o" d="M989.728,859.224s1-.666,1.332-4-.25-6.076.541-7.033,5.868,1.249,5.868,1.249a22.764,22.764,0,0,0,.583,5.785,7.848,7.848,0,0,1,.333,3.663Z" transform="translate(-980.364 -838.249)"/><path class="i" d="M996.328,856.65c-1.665-1-2.663-.666-2.663-2v-1.938a1.994,1.994,0,0,0,.749-1.558v-2.331a2,2,0,1,0-4,0v2.331a1.993,1.993,0,0,0,.749,1.558v1.938c0,1.331-1,1-2.663,2s-4.329,6.326-4.994,7.991l8.823,3.921v.074l.083-.037.083.037v-.074l8.823-3.921C1000.657,862.976,997.993,857.649,996.328,856.65Z" transform="translate(-978.099 -837.839)"/><path class="f" d="M996.328,861.593c-1.188-.713-2.034-.75-2.423-1.195a29.306,29.306,0,0,1-1.448,4.358c-.344-.172-1.336-2.912-1.932-4.07a15.206,15.206,0,0,0-2.021.907c-1.665,1-4.329,6.326-4.994,7.991l8.823,3.921v.074l.083-.037.083.037V873.5l8.823-3.921C1000.657,867.918,997.993,862.591,996.328,861.593Z" transform="translate(-978.099 -842.781)"/><path class="o" d="M995.725,846.66s-1.665,2.663-2.663,2.33-.666-2.663.666-4,3,.666,3,.666,1.332-.333,1.665,1.664-.333,2.331-.333,2.331A5.98,5.98,0,0,1,995.725,846.66Z" transform="translate(-981.366 -837.005)"/></g></g><g transform="translate(184.169 18.749)"><g class="p"><ellipse class="q" cx="10.679" cy="10.679" rx="10.679" ry="10.679"/><g transform="translate(3.65 4.831)"><path class="r" d="M932.745,812.423c-.27-.252-1.081.253-1.352-1.263s-.27-2.525.54-3.03c0,0,.271-1.263,2.163-1.01s1.622,2.525,1.622,2.525-.045,2.483-.968,2.757A4.524,4.524,0,0,1,932.745,812.423Z" transform="translate(-926.257 -807.087)"/><path class="s" d="M930.436,819.049c-5.407,0-7.029,7.57-7.029,7.57l7.029,2.7,7.029-2.7S935.842,819.049,930.436,819.049Z" transform="translate(-923.407 -811.444)"/><path class="i" d="M934.051,809.269h-.766a1.375,1.375,0,0,0-1.375,1.375v1.847a1.366,1.366,0,0,0,.541,1.086v1.775a1.216,1.216,0,1,0,2.433,0v-1.775a1.366,1.366,0,0,0,.541-1.086v-1.847A1.375,1.375,0,0,0,934.051,809.269Z" transform="translate(-926.504 -807.882)"/><ellipse class="t" cx="0.406" cy="0.676" rx="0.406" ry="0.676" transform="translate(8.651 3.009)"/><ellipse class="i" cx="0.406" cy="0.676" rx="0.406" ry="0.676" transform="translate(5.137 3.009)"/><path class="t" d="M934.578,811.234c.27,1.352,0,1.081-.271,1.352s.811.27.541.811a.96.96,0,0,1-.811.541,7.628,7.628,0,0,1,1.561,1.85,1.209,1.209,0,0,0,.061-.364v-1.775a1.367,1.367,0,0,0,.541-1.086v-1.847a1.372,1.372,0,0,0-.805-1.248l-.816.144S934.307,809.883,934.578,811.234Z" transform="translate(-927.278 -807.954)"/><path class="r" d="M932.3,809.771c.811.54,2.432,0,2.432,0a1.335,1.335,0,0,0,.271.811c.27.27.27,1.081.27,1.081l.27-1.352-.54-1.352-1.352-.541-1.893.541-.27,2.163.27.54a1.954,1.954,0,0,1,.27-.81C932.3,810.582,932.3,809.771,932.3,809.771Z" transform="translate(-926.349 -807.572)"/></g></g></g><g transform="translate(290.347 53.673)"><g class="u"><ellipse class="q" cx="11.846" cy="11.846" rx="11.846" ry="11.846"/><g transform="translate(4.048 5.358)"><path class="r" d="M1101.393,868.766c-.3-.28-1.2.28-1.5-1.4s-.3-2.8.6-3.361c0,0,.3-1.4,2.4-1.12s1.8,2.8,1.8,2.8-.05,2.754-1.074,3.058A5.021,5.021,0,0,1,1101.393,868.766Z" transform="translate(-1094.195 -862.847)"/><path class="s" d="M1098.831,876.116c-6,0-7.8,8.4-7.8,8.4l7.8,3,7.8-3S1104.829,876.116,1098.831,876.116Z" transform="translate(-1091.034 -867.679)"/><path class="i" d="M1102.842,865.267h-.85a1.524,1.524,0,0,0-1.525,1.525v2.049a1.517,1.517,0,0,0,.6,1.2v1.969a1.349,1.349,0,1,0,2.7,0v-1.969a1.518,1.518,0,0,0,.6-1.2v-2.049A1.525,1.525,0,0,0,1102.842,865.267Z" transform="translate(-1094.47 -863.728)"/><ellipse class="t" cx="0.45" cy="0.75" rx="0.45" ry="0.75" transform="translate(9.597 3.338)"/><ellipse class="i" cx="0.45" cy="0.75" rx="0.45" ry="0.75" transform="translate(5.698 3.338)"/><path class="t" d="M1103.426,867.447c.3,1.5,0,1.2-.3,1.5s.9.3.6.9a1.065,1.065,0,0,1-.9.6,8.468,8.468,0,0,1,1.731,2.052,1.313,1.313,0,0,0,.068-.4v-1.969a1.518,1.518,0,0,0,.6-1.2v-2.049a1.521,1.521,0,0,0-.894-1.384l-.905.16S1103.126,865.948,1103.426,867.447Z" transform="translate(-1095.328 -863.809)"/><path class="r" d="M1100.9,865.823c.9.6,2.7,0,2.7,0a1.479,1.479,0,0,0,.3.9c.3.3.3,1.2.3,1.2l.3-1.5-.6-1.5-1.5-.6-2.1.6-.3,2.4.3.6a2.163,2.163,0,0,1,.3-.9C1100.9,866.723,1100.9,865.823,1100.9,865.823Z" transform="translate(-1094.298 -863.385)"/></g></g></g><g transform="translate(183.876 64.951)"><g class="v"><ellipse class="q" cx="11.289" cy="11.289" rx="11.289" ry="11.289"/><path class="o" d="M936.835,888.18c-.708.474-1.841,0-1.7-2.684s-1.133-3-2.124-3.158h-.545c-.991.158-2.265.474-2.124,3.158s-.991,3.158-1.7,2.684c0,0-.564,2.675,4.085,2.841h.022C937.4,890.854,936.835,888.18,936.835,888.18Z" transform="translate(-921.364 -875.864)"/><path class="i" d="M934.023,891.05c-1.313-.788-2.1-.525-2.1-1.575v-1.528a1.573,1.573,0,0,0,.591-1.228V884.88a1.575,1.575,0,0,0-3.15,0v1.838a1.57,1.57,0,0,0,.591,1.228v1.528c0,1.05-.788.788-2.1,1.575s-3.412,4.988-3.938,6.3l6.957,3.092v.058l.065-.029.066.029v-.058l6.958-3.092C937.436,896.037,935.336,891.837,934.023,891.05Z" transform="translate(-919.65 -876.217)"/><path class="s" d="M934.023,894.946c-.937-.562-1.6-.591-1.911-.942a23.128,23.128,0,0,1-1.141,3.436,26.575,26.575,0,0,1-1.524-3.208,11.923,11.923,0,0,0-1.594.715c-1.312.788-3.412,4.988-3.938,6.3l6.957,3.092v.058l.065-.029.066.029v-.058l6.958-3.092C937.436,899.934,935.336,895.734,934.023,894.946Z" transform="translate(-919.65 -880.113)"/><path class="o" d="M934.572,883.781s-1.263,1.895-2.527,1.737l-.158-1.263.79-1.263,1.895-.158,1.263.947.158,1.737S934.888,885.36,934.572,883.781Z" transform="translate(-922.553 -876.045)"/></g></g><g transform="translate(266.399 14.626)"><g class="w"><ellipse class="q" cx="11.444" cy="11.444" rx="11.444" ry="11.444"/><g transform="translate(2.922 5.437)"><path class="s" d="M1067.937,816.422a2.387,2.387,0,0,0-2.012-2.169l-5.807-.9-5.807.9a2.387,2.387,0,0,0-2.012,2.169l-.7,8.859h17.044Z" transform="translate(-1051.596 -805.852)"/><path class="o" d="M2.642,0h0A2.642,2.642,0,0,1,5.284,2.642V3.716A1.738,1.738,0,0,1,3.545,5.454H1.738A1.738,1.738,0,0,1,0,3.716V2.642A2.642,2.642,0,0,1,2.642,0Z" transform="translate(5.966)"/><path class="i" d="M1064.427,802.936H1063.4a1.617,1.617,0,0,0-1.617,1.617v2.288a1.613,1.613,0,0,0,.521,1.187c0,.051-.008.1-.008.155v2.288a1.617,1.617,0,1,0,3.235,0v-2.288c0-.053,0-.1-.008-.155a1.613,1.613,0,0,0,.521-1.187v-2.288A1.618,1.618,0,0,0,1064.427,802.936Z" transform="translate(-1055.306 -802.058)"/><path class="t" d="M1066.63,804.672a1.616,1.616,0,0,0-.827-1.41l-1.219.449c-.511,1.364.171,1.875.171,2.216s-.511.511-.511.511a.373.373,0,0,0,.17.511c.341.171-.17.682-.341.682s-.682.852-.682.852l2.719,2.239c0-.044.006-.088.006-.132V808.3a1.543,1.543,0,0,0-.008-.155,1.614,1.614,0,0,0,.521-1.186Z" transform="translate(-1055.892 -802.177)"/><path class="o" d="M1061.515,805.185a2.467,2.467,0,0,0,.511-1.7,5.2,5.2,0,0,0,3.409,0s.17,1.364.682,1.534V803.65l-1.193-1.022H1062.2l-.511.852-.171.682Z" transform="translate(-1055.208 -801.946)"/><path class="o" d="M1064.5,808.525c-.612,0-1.108.343-1.108.767s.5.767,1.108.767,1.107-.343,1.107-.767S1065.111,808.525,1064.5,808.525Zm0,1.3c-.423,0-.767-.238-.767-.531s.343-.532.767-.532.767.238.767.532S1064.923,809.823,1064.5,809.823Z" transform="translate(-1055.892 -804.094)"/><path class="o" d="M1066.1,806.649a2.591,2.591,0,0,1-1.541,1.909.421.421,0,0,1,.007.051c0,.293-.343.531-.767.531s-.762-.235-.766-.526a2.116,2.116,0,0,1-1.535-1.794c-.17,2.216.511,2.727.852,2.9a3.4,3.4,0,0,0,2.728,0C1066.613,809.205,1066.1,806.649,1066.1,806.649Z" transform="translate(-1055.193 -803.411)"/></g></g></g><g transform="translate(248.385 81.17)"><g class="x"><ellipse class="q" cx="12.292" cy="12.292" rx="12.292" ry="12.292"/><g transform="translate(3.139 5.839)"><path class="s" d="M1041.155,922.82a2.563,2.563,0,0,0-2.161-2.33l-6.237-.97-6.237.97a2.563,2.563,0,0,0-2.161,2.33l-.755,9.515h18.306Z" transform="translate(-1023.604 -911.465)"/><path class="o" d="M2.837,0h0A2.837,2.837,0,0,1,5.675,2.837V3.991A1.867,1.867,0,0,1,3.808,5.858H1.867A1.867,1.867,0,0,1,0,3.991V2.837A2.837,2.837,0,0,1,2.837,0Z" transform="translate(6.407)"/><path class="i" d="M1037.384,908.333h-1.1a1.737,1.737,0,0,0-1.738,1.737v2.458a1.73,1.73,0,0,0,.559,1.274,1.637,1.637,0,0,0-.009.167v2.458a1.738,1.738,0,0,0,3.475,0v-2.458a1.637,1.637,0,0,0-.009-.167,1.73,1.73,0,0,0,.559-1.274V910.07A1.737,1.737,0,0,0,1037.384,908.333Z" transform="translate(-1027.589 -907.391)"/><path class="t" d="M1039.75,910.2a1.735,1.735,0,0,0-.888-1.514l-1.309.482c-.549,1.464.183,2.014.183,2.38s-.549.549-.549.549a.4.4,0,0,0,.183.549c.366.183-.183.732-.366.732s-.733.915-.733.915l2.92,2.4c0-.047.008-.094.008-.142V914.1a1.635,1.635,0,0,0-.009-.167,1.73,1.73,0,0,0,.559-1.274Z" transform="translate(-1028.218 -907.519)"/><path class="o" d="M1034.257,910.749a2.649,2.649,0,0,0,.549-1.831,5.581,5.581,0,0,0,3.661,0s.183,1.464.733,1.647V909.1l-1.282-1.1h-2.928l-.549.916-.183.732Z" transform="translate(-1027.484 -907.271)"/><path class="o" d="M1037.462,914.337c-.658,0-1.19.369-1.19.824s.533.824,1.19.824,1.19-.369,1.19-.824S1038.12,914.337,1037.462,914.337Zm0,1.394c-.455,0-.824-.256-.824-.57s.369-.57.824-.57.824.256.824.57S1037.917,915.731,1037.462,915.731Z" transform="translate(-1028.218 -909.577)"/><path class="o" d="M1039.183,912.322a2.784,2.784,0,0,1-1.656,2.051.359.359,0,0,1,.008.055c0,.315-.369.57-.824.57s-.819-.252-.823-.565a2.273,2.273,0,0,1-1.649-1.927c-.183,2.38.549,2.929.916,3.112a3.657,3.657,0,0,0,2.928,0C1039.732,915.068,1039.183,912.322,1039.183,912.322Z" transform="translate(-1027.467 -908.844)"/></g></g></g></svg>