
<svg xmlns="http://www.w3.org/2000/svg" xmlns:xlink="http://www.w3.org/1999/xlink" width="357.954" height="244.782" viewBox="0 0 357.954 244.782"><defs><style>.a{fill:none;}.b{fill:#eef5ff;}.c{fill:#e7e8e9;}.d{fill:#c7c7c7;}.e{fill:#86bdff;}.f{fill:#4a5157;}.g{fill:#fff;}.h{fill:#70a1ff;}.i{fill:#add2ff;}.j{fill:#60a8ff;}.k{clip-path:url(#a);}.l{fill:#d0e5ff;}.m{fill:#7f878e;}.n{clip-path:url(#b);}.o{fill:#e8e8e8;}.p{clip-path:url(#c);}.q{clip-path:url(#d);}.r{fill:#8b8b8b;}</style><clipPath id="a"><ellipse class="a" cx="14.981" cy="14.981" rx="14.981" ry="14.981"/></clipPath><clipPath id="b"><ellipse class="a" cx="16" cy="15.999" rx="16" ry="15.999"/></clipPath><clipPath id="c"><ellipse class="a" cx="13.391" cy="13.391" rx="13.391" ry="13.391"/></clipPath><clipPath id="d"><ellipse class="a" cx="15.577" cy="15.577" rx="15.577" ry="15.577"/></clipPath></defs><path class="b" d="M8,0H349.954a8,8,0,0,1,8,8V244.782a0,0,0,0,1,0,0H0a0,0,0,0,1,0,0V8A8,8,0,0,1,8,0Z" transform="translate(0 0)"/><g transform="translate(7.278 101.092)"><rect class="c" width="21.179" height="4.538" rx="2.269" transform="translate(54.833 23.437)"/><path class="d" d="M1322.69,969.286a2.269,2.269,0,0,0,2.269,2.269h16.64a2.269,2.269,0,0,0,2.269-2.269,2.152,2.152,0,0,0-.025-.252h-21.128A2.206,2.206,0,0,0,1322.69,969.286Z" transform="translate(-1267.857 -943.581)"/><path class="c" d="M1238.5,929h40.881a3.613,3.613,0,0,1,3.269,2.075l11.14,23.69a1.735,1.735,0,0,1-1.57,2.473h-41.767a3.228,3.228,0,0,1-2.927-1.868l-10.889-23.452A2.054,2.054,0,0,1,1238.5,929Z" transform="translate(-1236.447 -929)"/><ellipse class="d" cx="2.269" cy="4.034" rx="2.269" ry="4.034" transform="matrix(0.936, -0.352, 0.352, 0.936, 19.751, 12.151)"/><path class="d" d="M1318.04,954.765l-11.14-23.69a3.612,3.612,0,0,0-3.269-2.075h-.608l13.1,28.238h.351A1.734,1.734,0,0,0,1318.04,954.765Z" transform="translate(-1260.694 -929)"/></g><rect class="e" width="357.954" height="43.87" transform="translate(0 200.912)"/><path class="d" d="M1466,830.809V820l2.543,1.272v6.358Z" transform="translate(-1312.773 -788.21)"/><ellipse class="d" cx="3.815" cy="4.451" rx="3.815" ry="4.451" transform="translate(151.956 38.784)"/><path class="f" d="M1468.345,837.354c-1.272-1.272-3.815-5.086-2.543-11.444s6.994-7.63,11.444-6.994,8.9,5.722,8.265,14.623-3.815,8.9-3.815,8.9Z" transform="translate(-1312.574 -787.762)"/><path class="d" d="M1457.451,950.361l3.815,100.456a4.518,4.518,0,0,1-2.543,3.815c-2.543,1.271-5.722.636-5.722,5.086l18.438-1.272,1.908-95.37h2.543l5.4,36.559-3.179,56.586s5.086,3.815,6.994,4.45,9.537,0,9.537,0a3.353,3.353,0,0,0-1.907-4.45c-3.179-1.272-5.722-2.543-5.087-5.086S1494.645,999,1494.645,999l-2.543-51.5Z" transform="translate(-1308.038 -834.646)"/><path class="g" d="M1417.238,863.212c-.636-3.815-2.543-5.722-3.179-6.994s-1.908-3.815-2.543-2.543a3.071,3.071,0,0,0,0,2.543,4.38,4.38,0,0,1-2.543-3.179c-.636-2.543-.636-5.722-3.179-5.086s-2.543,8.265-1.272,9.537,6.358,5.086,6.358,5.086l1.589,4.027Z" transform="translate(-1290.078 -798.361)"/><path class="c" d="M1412.848,877.736l-.848-5.192,9.537-2.543,1.271,4.451Z" transform="translate(-1293.106 -806.42)"/><path class="h" d="M1412,871.716l11.444-3.179,5.086,19.074,6.994-20.981s0-1.908,3.179-2.543S1460.32,859,1460.32,859l22.889,5.086s8.9,19.074,12.08,26.068,2.543,12.716.636,15.259-15.259,2.543-15.259,2.543l.636,11.444-44.506.636-.954-19.392-7.63,7.629c-1.907,1.907-5.722,1.272-7.629-3.815S1412,871.716,1412,871.716Z" transform="translate(-1293.106 -802.414)"/><path class="g" d="M1468.136,849.025l8.9,22.889,1.271-10.808-1.271-1.907,2.543-4.451h1.271l2.543,4.451-1.271,1.907,1.271,11.444,6.994-24.16-3.179-2.543H1485.3l-.636-2.543s-.636-5.086-1.272-8.265a33.936,33.936,0,0,0-2.543-6.994,17.079,17.079,0,0,1-6.358,0c-3.814-.636-5.086-2.543-5.086-2.543a16.144,16.144,0,0,0-1.907,7.629c0,4.451.636,8.9,5.722,10.173v4.451l-1.907-1.272Z" transform="translate(-1313.319 -790.213)"/><g transform="translate(154.817 55.632)"><path class="c" d="M1491.043,870.852l-1.271,1.907,1.271,11.444,6.994-24.16-3.179-2.543-6.358,8.9Z" transform="translate(-1475.784 -857.5)"/><path class="c" d="M1478.672,873.123l-1.271-1.907,2.543-4.451-6.358-6.994-1.907-1.271-3.179,2.543,8.9,22.889Z" transform="translate(-1468.5 -857.864)"/></g><path class="g" d="M1489.325,928.9a82.9,82.9,0,0,0-8.265,1.907c-2.543.636-7.63.636-8.9,0s-2.543-2.543,0-2.543,6.358-.636,6.994-1.272-.636-1.907-1.907-3.179-.636-2.543,1.907-1.907,10.173.636,10.173.636Z" transform="translate(-1314.481 -825.262)"/><rect class="c" width="2.543" height="11.444" transform="translate(174.208 94.734)"/><g transform="translate(144.962 214.263)"><path class="f" d="M1471.629,1107h-10.436l.073,1.907a4.517,4.517,0,0,1-2.543,3.815c-2.543,1.272-5.722.636-5.722,5.086l18.438-1.272Z" transform="translate(-1453 -1107)"/><path class="f" d="M1502.41,1107h-9.5l-.411,7.312s5.086,3.815,6.994,4.451,9.537,0,9.537,0a3.353,3.353,0,0,0-1.907-4.451c-3.179-1.271-5.722-2.543-5.086-5.086C1502.1,1108.96,1502.232,1108.178,1502.41,1107Z" transform="translate(-1467.386 -1107)"/></g><path class="c" d="M1477.355,842.984H1472.9c-2.543-1.907-1.907-3.815-2.543-4.451s-2.543-1.907-1.272-2.543,1.272-.636,1.907-1.907c.572-1.144-.906-3.835.18-7.142a5.294,5.294,0,0,1-1.769-1.441,16.144,16.144,0,0,0-1.907,7.629c0,4.451.636,8.9,5.722,10.173v4.451l-1.907-1.272-.548.439,2.138,1.151S1479.262,842.984,1477.355,842.984Z" transform="translate(-1313.319 -790.213)"/><ellipse class="d" cx="3.815" cy="4.451" rx="3.815" ry="4.451" transform="translate(168.486 39.419)"/><path class="d" d="M1487.13,828.444l-2.522-.329c.01-.078.956-7.79-2.816-10.484-1.78-1.271-10.8-1.032-12.066-.523-.577.289-1.036,1.59-1.183,2.031L1466,817.867a6.111,6.111,0,0,1,2.61-3.045c1.63-.814,11.9-1.232,14.66.739C1488.283,819.142,1487.179,828.065,1487.13,828.444Z" transform="translate(-1312.773 -786.077)"/><path class="i" d="M1225,1060.024h117.623L1352.159,985H1225Z" transform="translate(-1225 -848.304)"/><path class="j" d="M1352.159,985H1225v15.685l122.779,18.772Z" transform="translate(-1225 -848.304)"/><path class="i" d="M1359.365,984.716,1225,984.08V972l134.365.636a2.967,2.967,0,0,1,2.967,2.967v6.146A2.967,2.967,0,0,1,1359.365,984.716Z" transform="translate(-1225 -843.569)"/><g transform="translate(292.48 139.137)"><path class="i" d="M1729.207,1050.031a14.249,14.249,0,0,0-1.271-9.537c-2.543-5.086,0-10.173,5.722-8.265s8.266.635,10.173-2.543,3.815-.636,6.358-1.272,6.358-6.994,10.173-1.271-5.087,5.087-5.087,9.537-5.086,6.358-8.9,4.451-5.722-1.907-6.358,1.907-5.086.636-6.994,2.543a11.4,11.4,0,0,0-2.543,5.086Z" transform="translate(-1700.292 -1001.926)"/><path class="h" d="M1718.158,1037.262s2.543-6.994,1.272-9.537-7.63-8.9-2.543-13.352,5.722-2.543,5.086-10.173,5.722-5.086,8.9-8.9,6.358-9.537,12.08-4.451,3.815,8.9,0,10.808-6.358,2.543-5.087,5.086,3.5,6.676-.318,9.219-7.629,1.272-6.358,4.451,2.543,6.358-.636,8.266-7.63-1.272-10.491,8.265Z" transform="translate(-1695.919 -988.839)"/><path class="j" d="M1704.082,1038.451c0-3.179,0-8.265-3.815-8.265s-9.537-.636-9.537-5.722,5.087-5.086,1.272-8.265-9.537-5.722-5.722-10.173-.636-7.63,1.271-10.809,7.63-4.451,10.809-1.271-1.907,7.63,1.907,8.9,5.722,2.543,5.722,6.358-4.451,1.908-1.907,5.722,4.45,1.907,5.087,6.994-4.451,3.815-3.815,17.166Z" transform="translate(-1685.021 -990.028)"/><path class="i" d="M1718.08,1064H1706l2.451,26.349a1.092,1.092,0,0,0,1.087.99h17.085a1.091,1.091,0,0,0,1.087-.99L1730.16,1064Z" transform="translate(-1692.662 -1016.213)"/><path class="j" d="M1730.16,1064H1706l.894,9.609,22.187,1.991Z" transform="translate(-1692.662 -1016.213)"/><rect class="i" width="31.154" height="5.722" rx="2.333" transform="translate(9.523 47.151)"/></g><g transform="translate(96.641 114.761)"><path class="i" d="M1389.211,964.671a5.961,5.961,0,1,1,5.961-5.961A5.968,5.968,0,0,1,1389.211,964.671Zm0-10.014a4.053,4.053,0,1,0,4.053,4.053A4.058,4.058,0,0,0,1389.211,954.657Z" transform="translate(-1379.276 -951.319)"/><path class="h" d="M1389.23,954.75a5.355,5.355,0,1,0,5.926,5.325A5.968,5.968,0,0,0,1389.23,954.75Zm4.053,5.961a4.053,4.053,0,0,1-8.106,0,3.732,3.732,0,0,0,0-1.272,4.053,4.053,0,1,1,8.106,0,3.724,3.724,0,0,0,0,1.272Z" transform="translate(-1379.296 -952.048)"/><rect class="j" width="10.968" height="14.305" rx="3.125"/><path class="i" d="M1378.987,950.5a1.987,1.987,0,0,0-1.987,1.987v10.332a.537.537,0,0,0,.715.715h3.894a5.086,5.086,0,0,0,5.086-5.086v-7.232a.537.537,0,0,0-.715-.715Z" transform="translate(-1377 -950.5)"/></g><g transform="translate(79.395 30.439)"><g class="k"><ellipse class="l" cx="14.981" cy="14.981" rx="14.981" ry="14.981"/><path class="m" d="M1365.287,845.642s1.045-.7,1.393-4.181-.261-6.358.566-7.36,6.141,1.307,6.141,1.307a23.823,23.823,0,0,0,.61,6.053,8.2,8.2,0,0,1,.349,3.833Z" transform="translate(-1355.488 -823.693)"/><path class="g" d="M1372.193,842.948c-1.742-1.045-2.787-.7-2.787-2.091v-2.028a2.086,2.086,0,0,0,.784-1.63V834.76a2.09,2.09,0,1,0-4.18,0V837.2a2.086,2.086,0,0,0,.784,1.63v2.028c0,1.394-1.045,1.045-2.787,2.091s-4.529,6.619-5.226,8.361l9.233,4.1v.078l.087-.039.087.039v-.078l9.233-4.1C1376.722,849.567,1373.934,843.993,1372.193,842.948Z" transform="translate(-1353.118 -823.263)"/><path class="i" d="M1372.193,848.119c-1.243-.746-2.128-.785-2.535-1.25a30.662,30.662,0,0,1-1.515,4.56c-.36-.181-1.4-3.047-2.022-4.259a16.009,16.009,0,0,0-2.115.949c-1.742,1.045-4.529,6.619-5.226,8.361l9.233,4.1v.077l.086-.039.087.039v-.077l9.233-4.1C1376.722,854.738,1373.934,849.164,1372.193,848.119Z" transform="translate(-1353.118 -828.435)"/><path class="m" d="M1371.561,832.494s-1.742,2.787-2.787,2.439-.7-2.787.7-4.181,3.136.7,3.136.7,1.394-.349,1.742,1.742-.349,2.439-.349,2.439A6.256,6.256,0,0,1,1371.561,832.494Z" transform="translate(-1356.536 -822.39)"/></g></g><g transform="translate(226.77 84.988)"><g class="n"><ellipse class="l" cx="16" cy="15.999" rx="16" ry="15.999"/><g transform="translate(4.086 7.601)"><path class="m" d="M3.693,0h0A3.693,3.693,0,0,1,7.387,3.693v1.5a2.43,2.43,0,0,1-2.43,2.43H2.43A2.43,2.43,0,0,1,0,5.194v-1.5A3.693,3.693,0,0,1,3.693,0Z" transform="translate(8.34)"/><path class="g" d="M1606.034,917.555H1604.6a2.262,2.262,0,0,0-2.261,2.261v3.2a2.252,2.252,0,0,0,.728,1.658c-.006.072-.011.144-.011.217v3.2a2.262,2.262,0,0,0,4.523,0v-3.2c0-.073,0-.145-.011-.217a2.252,2.252,0,0,0,.728-1.658v-3.2A2.262,2.262,0,0,0,1606.034,917.555Z" transform="translate(-1593.284 -916.328)"/><path class="o" d="M1609.114,919.983a2.261,2.261,0,0,0-1.156-1.972l-1.7.628c-.715,1.906.239,2.621.239,3.1s-.715.715-.715.715a.521.521,0,0,0,.239.715c.476.238-.239.953-.477.953s-.953,1.192-.953,1.192l3.8,3.13c.005-.061.01-.122.01-.184v-3.2c0-.073,0-.145-.011-.217a2.251,2.251,0,0,0,.728-1.658Z" transform="translate(-1594.103 -916.495)"/><path class="i" d="M1610.942,936.41a3.335,3.335,0,0,0-2.812-3.032l-8.119-1.263-8.119,1.263a3.334,3.334,0,0,0-2.812,3.032l-.983,12.385h23.828Z" transform="translate(-1588.097 -921.632)"/><path class="m" d="M1601.964,920.7a3.447,3.447,0,0,0,.715-2.382,7.261,7.261,0,0,0,4.765,0s.239,1.906.953,2.145v-1.907l-1.668-1.429h-3.812l-.715,1.192-.238.953Z" transform="translate(-1593.147 -916.172)"/><path class="m" d="M1606.136,925.37c-.855,0-1.549.48-1.549,1.072s.693,1.073,1.549,1.073,1.549-.48,1.549-1.073S1606.991,925.37,1606.136,925.37Zm0,1.815c-.592,0-1.073-.333-1.073-.743s.481-.742,1.073-.742,1.072.332,1.072.742S1606.728,927.185,1606.136,927.185Z" transform="translate(-1594.103 -919.175)"/><path class="m" d="M1608.375,922.746a3.621,3.621,0,0,1-2.155,2.669.5.5,0,0,1,.01.071c0,.41-.48.743-1.072.743s-1.065-.329-1.071-.736a2.958,2.958,0,0,1-2.145-2.509c-.238,3.1.714,3.812,1.191,4.051a4.756,4.756,0,0,0,3.813,0C1609.091,926.32,1608.375,922.746,1608.375,922.746Z" transform="translate(-1593.126 -918.219)"/></g></g></g><g transform="translate(185.573 8.186)"><g class="p"><ellipse class="l" cx="13.391" cy="13.391" rx="13.391" ry="13.391"/><path class="m" d="M1540.16,801.883c-.84.562-2.184,0-2.016-3.184s-1.343-3.558-2.519-3.745h-.646c-1.175.187-2.687.562-2.52,3.745s-1.176,3.746-2.016,3.184c0,0-.669,3.174,4.845,3.37h.026C1540.829,805.056,1540.16,801.883,1540.16,801.883Z" transform="translate(-1521.807 -787.274)"/><path class="g" d="M1536.825,805.287c-1.557-.934-2.491-.623-2.491-1.869v-1.813a1.862,1.862,0,0,0,.7-1.457v-2.18a1.868,1.868,0,1,0-3.736,0v2.18a1.862,1.862,0,0,0,.7,1.457v1.813c0,1.246-.934.935-2.491,1.869s-4.049,5.917-4.671,7.474l8.253,3.668v.069l.078-.035.078.035v-.069l8.252-3.668C1540.873,811.2,1538.382,806.222,1536.825,805.287Z" transform="translate(-1519.774 -787.692)"/><path class="i" d="M1536.825,809.91c-1.111-.666-1.9-.7-2.266-1.117a27.459,27.459,0,0,1-1.354,4.075c-.323-.161-1.25-2.723-1.808-3.807a14.306,14.306,0,0,0-1.891.848c-1.557.935-4.049,5.917-4.671,7.474l8.253,3.668v.069l.078-.035.078.035v-.069l8.252-3.668C1540.873,815.828,1538.382,810.845,1536.825,809.91Z" transform="translate(-1519.774 -792.314)"/><path class="m" d="M1537.476,796.665s-1.5,2.248-3,2.061l-.187-1.5.936-1.5,2.248-.187,1.5,1.123.187,2.061S1537.85,798.538,1537.476,796.665Z" transform="translate(-1523.218 -787.488)"/></g></g><g transform="translate(239.537 33.061)"><g class="q"><ellipse class="l" cx="15.577" cy="15.577" rx="15.577" ry="15.577"/><g transform="translate(5.324 7.046)"><path class="r" d="M1623.745,840.867c-.394-.369-1.578.368-1.972-1.842s-.394-3.684.789-4.42c0,0,.394-1.842,3.154-1.474s2.366,3.684,2.366,3.684-.065,3.622-1.413,4.021A6.617,6.617,0,0,1,1623.745,840.867Z" transform="translate(-1614.28 -833.082)"/><path class="i" d="M1620.376,850.532c-7.887,0-10.253,11.042-10.253,11.042l10.253,3.943,10.254-3.943S1628.263,850.532,1620.376,850.532Z" transform="translate(-1610.123 -839.438)"/><path class="g" d="M1625.65,836.266h-1.118a2,2,0,0,0-2,2v2.694a2,2,0,0,0,.789,1.584v2.59a1.774,1.774,0,1,0,3.549,0v-2.59a1.993,1.993,0,0,0,.789-1.584v-2.694A2,2,0,0,0,1625.65,836.266Z" transform="translate(-1614.641 -834.242)"/><ellipse class="o" cx="0.592" cy="0.986" rx="0.592" ry="0.986" transform="translate(12.62 4.39)"/><ellipse class="g" cx="0.592" cy="0.986" rx="0.592" ry="0.986" transform="translate(7.493 4.39)"/><path class="o" d="M1626.418,839.132c.395,1.972,0,1.577-.394,1.972s1.183.394.789,1.183a1.4,1.4,0,0,1-1.183.788,11.144,11.144,0,0,1,2.276,2.7,1.741,1.741,0,0,0,.09-.53v-2.59a1.992,1.992,0,0,0,.789-1.584v-2.695a2,2,0,0,0-1.176-1.82l-1.191.21S1626.024,837.16,1626.418,839.132Z" transform="translate(-1615.77 -834.347)"/><path class="m" d="M1623.091,837c1.183.788,3.549,0,3.549,0a1.944,1.944,0,0,0,.395,1.183c.394.395.394,1.578.394,1.578l.394-1.972-.788-1.972-1.972-.789-2.761.789-.394,3.155.394.789a2.841,2.841,0,0,1,.395-1.183C1623.091,838.18,1623.091,837,1623.091,837Z" transform="translate(-1614.415 -833.79)"/></g></g></g></svg>