<svg xmlns="http://www.w3.org/2000/svg" width="20" height="18.006" viewBox="0 0 20 18.006"><defs><style>.a{fill:#70a1ff;}</style></defs><g transform="translate(0 0)"><path class="a" d="M17.656,28.643H13.513v-.781a2.346,2.346,0,0,0-2.344-2.344H8.831a2.346,2.346,0,0,0-2.344,2.344v.781H2.344A2.346,2.346,0,0,0,0,30.987V41.181a2.346,2.346,0,0,0,2.344,2.344H17.656A2.346,2.346,0,0,0,20,41.181V30.987A2.346,2.346,0,0,0,17.656,28.643ZM8.05,27.862a.782.782,0,0,1,.781-.781h2.338a.782.782,0,0,1,.781.781v.781H8.05ZM18.438,41.181a.782.782,0,0,1-.781.781H2.344a.782.782,0,0,1-.781-.781v-6.6H4.1v2.108H5.664V34.58H9.219v5.742h1.562V34.58h3.555v2.108H15.9V34.58h2.539Zm0-8.163H1.563V30.987a.782.782,0,0,1,.781-.781H17.656a.782.782,0,0,1,.781.781Z" transform="translate(0 -25.518)"/></g></svg>